<mxfile host="app.diagrams.net" modified="2023-04-10T15:11:05.803Z" agent="Mozilla/5.0 (Windows NT 10.0; Win64; x64) AppleWebKit/537.36 (KHTML, like Gecko) Chrome/112.0.0.0 Safari/537.36 Edg/112.0.1722.34" etag="tNIkO7ni0JKJUSlphAu9" version="21.1.4" type="device">
  <diagram id="C5RBs43oDa-KdzZeNtuy" name="Page-1">
    <mxGraphModel dx="4574" dy="-224" grid="1" gridSize="10" guides="1" tooltips="1" connect="0" arrows="1" fold="1" page="1" pageScale="1" pageWidth="827" pageHeight="1169" math="0" shadow="0">
      <root>
        <mxCell id="WIyWlLk6GJQsqaUBKTNV-0" />
        <mxCell id="WIyWlLk6GJQsqaUBKTNV-1" parent="WIyWlLk6GJQsqaUBKTNV-0" />
        <mxCell id="3wCkGZQV_pcTR9l7CTKe-269" value="" style="rounded=0;whiteSpace=wrap;html=1;fillColor=#f5f5f5;fontColor=#333333;strokeColor=#666666;" parent="WIyWlLk6GJQsqaUBKTNV-1" vertex="1">
          <mxGeometry x="10" y="2448" width="1640" height="142" as="geometry" />
        </mxCell>
        <mxCell id="3wCkGZQV_pcTR9l7CTKe-270" value="" style="rounded=0;whiteSpace=wrap;html=1;fillColor=#f5f5f5;fontColor=#333333;strokeColor=#666666;" parent="WIyWlLk6GJQsqaUBKTNV-1" vertex="1">
          <mxGeometry x="10" y="2610" width="1640" height="740" as="geometry" />
        </mxCell>
        <mxCell id="3wCkGZQV_pcTR9l7CTKe-267" value="" style="rounded=0;whiteSpace=wrap;html=1;fillColor=#d5e8d4;strokeColor=#82b366;" parent="WIyWlLk6GJQsqaUBKTNV-1" vertex="1">
          <mxGeometry x="583" y="3080" width="480" height="260" as="geometry" />
        </mxCell>
        <mxCell id="3wCkGZQV_pcTR9l7CTKe-266" value="" style="rounded=0;whiteSpace=wrap;html=1;fillColor=#fff2cc;strokeColor=#d6b656;" parent="WIyWlLk6GJQsqaUBKTNV-1" vertex="1">
          <mxGeometry x="900" y="2650" width="740" height="420" as="geometry" />
        </mxCell>
        <mxCell id="3wCkGZQV_pcTR9l7CTKe-264" value="" style="rounded=0;whiteSpace=wrap;html=1;fillColor=#dae8fc;strokeColor=#6c8ebf;" parent="WIyWlLk6GJQsqaUBKTNV-1" vertex="1">
          <mxGeometry x="20" y="2650" width="740" height="410" as="geometry" />
        </mxCell>
        <mxCell id="dgOty0l77OXkp6bVIL34-43" style="edgeStyle=orthogonalEdgeStyle;rounded=0;orthogonalLoop=1;jettySize=auto;html=1;exitX=0.5;exitY=0;exitDx=0;exitDy=0;strokeWidth=1;startArrow=none;startFill=0;endArrow=none;endFill=0;" parent="WIyWlLk6GJQsqaUBKTNV-1" edge="1">
          <mxGeometry relative="1" as="geometry">
            <mxPoint x="110" y="1819" as="sourcePoint" />
            <mxPoint x="110" y="1779" as="targetPoint" />
            <Array as="points">
              <mxPoint x="110" y="1789" />
              <mxPoint x="110" y="1789" />
            </Array>
          </mxGeometry>
        </mxCell>
        <mxCell id="dgOty0l77OXkp6bVIL34-44" style="edgeStyle=orthogonalEdgeStyle;rounded=0;orthogonalLoop=1;jettySize=auto;html=1;exitX=0.5;exitY=0;exitDx=0;exitDy=0;strokeWidth=1;startArrow=none;startFill=0;endArrow=none;endFill=0;" parent="WIyWlLk6GJQsqaUBKTNV-1" edge="1">
          <mxGeometry relative="1" as="geometry">
            <mxPoint x="310" y="1779" as="targetPoint" />
            <mxPoint x="310" y="1819" as="sourcePoint" />
          </mxGeometry>
        </mxCell>
        <mxCell id="dgOty0l77OXkp6bVIL34-45" value="" style="triangle;whiteSpace=wrap;html=1;rotation=-90;" parent="WIyWlLk6GJQsqaUBKTNV-1" vertex="1">
          <mxGeometry x="203" y="1759" width="20" height="20" as="geometry" />
        </mxCell>
        <mxCell id="dgOty0l77OXkp6bVIL34-46" value="" style="endArrow=none;html=1;rounded=0;strokeWidth=1;entryX=0.497;entryY=0.996;entryDx=0;entryDy=0;entryPerimeter=0;exitX=1;exitY=0.5;exitDx=0;exitDy=0;" parent="WIyWlLk6GJQsqaUBKTNV-1" source="dgOty0l77OXkp6bVIL34-45" edge="1">
          <mxGeometry width="50" height="50" relative="1" as="geometry">
            <mxPoint x="213" y="1761" as="sourcePoint" />
            <mxPoint x="213" y="1741" as="targetPoint" />
          </mxGeometry>
        </mxCell>
        <mxCell id="dgOty0l77OXkp6bVIL34-47" value="" style="endArrow=none;html=1;rounded=0;strokeWidth=1;" parent="WIyWlLk6GJQsqaUBKTNV-1" edge="1">
          <mxGeometry width="50" height="50" relative="1" as="geometry">
            <mxPoint x="110" y="1779" as="sourcePoint" />
            <mxPoint x="310" y="1779" as="targetPoint" />
          </mxGeometry>
        </mxCell>
        <mxCell id="dgOty0l77OXkp6bVIL34-48" value="implements" style="text;html=1;align=center;verticalAlign=middle;resizable=0;points=[];autosize=1;strokeColor=none;fillColor=none;" parent="WIyWlLk6GJQsqaUBKTNV-1" vertex="1">
          <mxGeometry x="216" y="1749" width="80" height="30" as="geometry" />
        </mxCell>
        <mxCell id="dgOty0l77OXkp6bVIL34-49" value="Guest" style="swimlane;fontStyle=1;align=center;verticalAlign=top;childLayout=stackLayout;horizontal=1;startSize=26;horizontalStack=0;resizeParent=1;resizeLast=0;collapsible=1;marginBottom=0;rounded=0;shadow=0;strokeWidth=1;" parent="WIyWlLk6GJQsqaUBKTNV-1" vertex="1">
          <mxGeometry x="20" y="1817" width="160" height="34" as="geometry">
            <mxRectangle x="130" y="380" width="160" height="26" as="alternateBounds" />
          </mxGeometry>
        </mxCell>
        <mxCell id="dgOty0l77OXkp6bVIL34-51" value="" style="line;html=1;strokeWidth=1;align=left;verticalAlign=middle;spacingTop=-1;spacingLeft=3;spacingRight=3;rotatable=0;labelPosition=right;points=[];portConstraint=eastwest;" parent="dgOty0l77OXkp6bVIL34-49" vertex="1">
          <mxGeometry y="26" width="160" height="8" as="geometry" />
        </mxCell>
        <mxCell id="dgOty0l77OXkp6bVIL34-76" style="edgeStyle=orthogonalEdgeStyle;rounded=0;orthogonalLoop=1;jettySize=auto;html=1;exitX=1;exitY=0.5;exitDx=0;exitDy=0;entryX=0;entryY=0.5;entryDx=0;entryDy=0;" parent="WIyWlLk6GJQsqaUBKTNV-1" source="dgOty0l77OXkp6bVIL34-54" target="dgOty0l77OXkp6bVIL34-66" edge="1">
          <mxGeometry relative="1" as="geometry">
            <Array as="points">
              <mxPoint x="490" y="1726" />
              <mxPoint x="490" y="1726" />
            </Array>
          </mxGeometry>
        </mxCell>
        <mxCell id="dgOty0l77OXkp6bVIL34-54" value="User" style="swimlane;fontStyle=1;align=center;verticalAlign=top;childLayout=stackLayout;horizontal=1;startSize=26;horizontalStack=0;resizeParent=1;resizeLast=0;collapsible=1;marginBottom=0;rounded=0;shadow=0;strokeWidth=1;" parent="WIyWlLk6GJQsqaUBKTNV-1" vertex="1">
          <mxGeometry x="137" y="1711" width="160" height="30" as="geometry">
            <mxRectangle x="130" y="380" width="160" height="26" as="alternateBounds" />
          </mxGeometry>
        </mxCell>
        <mxCell id="dgOty0l77OXkp6bVIL34-78" style="edgeStyle=orthogonalEdgeStyle;rounded=0;orthogonalLoop=1;jettySize=auto;html=1;exitX=0.5;exitY=1;exitDx=0;exitDy=0;" parent="WIyWlLk6GJQsqaUBKTNV-1" source="dgOty0l77OXkp6bVIL34-66" edge="1">
          <mxGeometry relative="1" as="geometry">
            <Array as="points">
              <mxPoint x="640" y="1810" />
              <mxPoint x="640" y="1810" />
            </Array>
            <mxPoint x="640" y="1820" as="targetPoint" />
          </mxGeometry>
        </mxCell>
        <mxCell id="dgOty0l77OXkp6bVIL34-66" value="Cart" style="swimlane;fontStyle=1;align=center;verticalAlign=top;childLayout=stackLayout;horizontal=1;startSize=26;horizontalStack=0;resizeParent=1;resizeLast=0;collapsible=1;marginBottom=0;rounded=0;shadow=0;strokeWidth=1;" parent="WIyWlLk6GJQsqaUBKTNV-1" vertex="1">
          <mxGeometry x="560" y="1711" width="160" height="30" as="geometry">
            <mxRectangle x="130" y="380" width="160" height="26" as="alternateBounds" />
          </mxGeometry>
        </mxCell>
        <mxCell id="dgOty0l77OXkp6bVIL34-73" value="Member" style="swimlane;fontStyle=1;align=center;verticalAlign=top;childLayout=stackLayout;horizontal=1;startSize=26;horizontalStack=0;resizeParent=1;resizeLast=0;collapsible=1;marginBottom=0;rounded=0;shadow=0;strokeWidth=1;" parent="WIyWlLk6GJQsqaUBKTNV-1" vertex="1">
          <mxGeometry x="230" y="1817" width="160" height="34" as="geometry">
            <mxRectangle x="130" y="380" width="160" height="26" as="alternateBounds" />
          </mxGeometry>
        </mxCell>
        <mxCell id="dgOty0l77OXkp6bVIL34-74" value="" style="line;html=1;strokeWidth=1;align=left;verticalAlign=middle;spacingTop=-1;spacingLeft=3;spacingRight=3;rotatable=0;labelPosition=right;points=[];portConstraint=eastwest;" parent="dgOty0l77OXkp6bVIL34-73" vertex="1">
          <mxGeometry y="26" width="160" height="8" as="geometry" />
        </mxCell>
        <mxCell id="3wCkGZQV_pcTR9l7CTKe-6" style="edgeStyle=orthogonalEdgeStyle;rounded=0;orthogonalLoop=1;jettySize=auto;html=1;" parent="WIyWlLk6GJQsqaUBKTNV-1" edge="1">
          <mxGeometry relative="1" as="geometry">
            <mxPoint x="670" y="1850" as="sourcePoint" />
            <mxPoint x="1560" y="1770" as="targetPoint" />
            <Array as="points">
              <mxPoint x="670" y="1950" />
              <mxPoint x="1560" y="1950" />
            </Array>
          </mxGeometry>
        </mxCell>
        <mxCell id="dgOty0l77OXkp6bVIL34-77" value="Basket" style="swimlane;fontStyle=1;align=center;verticalAlign=top;childLayout=stackLayout;horizontal=1;startSize=26;horizontalStack=0;resizeParent=1;resizeLast=0;collapsible=1;marginBottom=0;rounded=0;shadow=0;strokeWidth=1;" parent="WIyWlLk6GJQsqaUBKTNV-1" vertex="1">
          <mxGeometry x="583" y="1822" width="160" height="30" as="geometry">
            <mxRectangle x="130" y="380" width="160" height="26" as="alternateBounds" />
          </mxGeometry>
        </mxCell>
        <mxCell id="dgOty0l77OXkp6bVIL34-79" value="0..n" style="text;html=1;align=center;verticalAlign=middle;resizable=0;points=[];autosize=1;strokeColor=none;fillColor=none;" parent="WIyWlLk6GJQsqaUBKTNV-1" vertex="1">
          <mxGeometry x="644" y="1792" width="40" height="30" as="geometry" />
        </mxCell>
        <mxCell id="dgOty0l77OXkp6bVIL34-80" style="edgeStyle=orthogonalEdgeStyle;rounded=0;orthogonalLoop=1;jettySize=auto;html=1;exitX=0.5;exitY=1;exitDx=0;exitDy=0;" parent="WIyWlLk6GJQsqaUBKTNV-1" source="dgOty0l77OXkp6bVIL34-81" target="dgOty0l77OXkp6bVIL34-82" edge="1">
          <mxGeometry relative="1" as="geometry">
            <Array as="points">
              <mxPoint x="1297" y="1730" />
              <mxPoint x="1497" y="1730" />
            </Array>
          </mxGeometry>
        </mxCell>
        <mxCell id="dgOty0l77OXkp6bVIL34-81" value="Store" style="swimlane;fontStyle=1;align=center;verticalAlign=top;childLayout=stackLayout;horizontal=1;startSize=26;horizontalStack=0;resizeParent=1;resizeLast=0;collapsible=1;marginBottom=0;rounded=0;shadow=0;strokeWidth=1;" parent="WIyWlLk6GJQsqaUBKTNV-1" vertex="1">
          <mxGeometry x="1217" y="1680" width="160" height="30" as="geometry">
            <mxRectangle x="130" y="380" width="160" height="26" as="alternateBounds" />
          </mxGeometry>
        </mxCell>
        <mxCell id="dgOty0l77OXkp6bVIL34-82" value="Product" style="swimlane;fontStyle=1;align=center;verticalAlign=top;childLayout=stackLayout;horizontal=1;startSize=26;horizontalStack=0;resizeParent=1;resizeLast=0;collapsible=1;marginBottom=0;rounded=0;shadow=0;strokeWidth=1;" parent="WIyWlLk6GJQsqaUBKTNV-1" vertex="1">
          <mxGeometry x="1417" y="1741" width="160" height="30" as="geometry">
            <mxRectangle x="130" y="380" width="160" height="26" as="alternateBounds" />
          </mxGeometry>
        </mxCell>
        <mxCell id="dgOty0l77OXkp6bVIL34-83" value="1" style="text;html=1;align=center;verticalAlign=middle;resizable=0;points=[];autosize=1;strokeColor=none;fillColor=none;" parent="WIyWlLk6GJQsqaUBKTNV-1" vertex="1">
          <mxGeometry x="1267" y="1710" width="30" height="30" as="geometry" />
        </mxCell>
        <mxCell id="dgOty0l77OXkp6bVIL34-89" style="edgeStyle=orthogonalEdgeStyle;rounded=0;orthogonalLoop=1;jettySize=auto;html=1;exitX=0.75;exitY=1;exitDx=0;exitDy=0;" parent="WIyWlLk6GJQsqaUBKTNV-1" source="dgOty0l77OXkp6bVIL34-84" target="3wCkGZQV_pcTR9l7CTKe-10" edge="1">
          <mxGeometry relative="1" as="geometry">
            <mxPoint x="874" y="1603.5" as="targetPoint" />
          </mxGeometry>
        </mxCell>
        <mxCell id="dgOty0l77OXkp6bVIL34-90" style="edgeStyle=orthogonalEdgeStyle;rounded=0;orthogonalLoop=1;jettySize=auto;html=1;exitX=0.25;exitY=1;exitDx=0;exitDy=0;entryX=0.5;entryY=0;entryDx=0;entryDy=0;" parent="WIyWlLk6GJQsqaUBKTNV-1" source="dgOty0l77OXkp6bVIL34-84" target="dgOty0l77OXkp6bVIL34-88" edge="1">
          <mxGeometry relative="1" as="geometry" />
        </mxCell>
        <mxCell id="e1XWONMxhsrJTEbYBpTl-13" style="edgeStyle=orthogonalEdgeStyle;rounded=0;orthogonalLoop=1;jettySize=auto;html=1;exitX=1;exitY=0.5;exitDx=0;exitDy=0;fontSize=8;entryX=0;entryY=0.5;entryDx=0;entryDy=0;" parent="WIyWlLk6GJQsqaUBKTNV-1" source="dgOty0l77OXkp6bVIL34-84" target="e1XWONMxhsrJTEbYBpTl-14" edge="1">
          <mxGeometry relative="1" as="geometry">
            <mxPoint x="1004" y="1535" as="targetPoint" />
          </mxGeometry>
        </mxCell>
        <mxCell id="dgOty0l77OXkp6bVIL34-84" value="Service" style="swimlane;fontStyle=1;align=center;verticalAlign=top;childLayout=stackLayout;horizontal=1;startSize=26;horizontalStack=0;resizeParent=1;resizeLast=0;collapsible=1;marginBottom=0;rounded=0;shadow=0;strokeWidth=1;" parent="WIyWlLk6GJQsqaUBKTNV-1" vertex="1">
          <mxGeometry x="684" y="1520" width="160" height="30" as="geometry">
            <mxRectangle x="130" y="380" width="160" height="26" as="alternateBounds" />
          </mxGeometry>
        </mxCell>
        <mxCell id="dgOty0l77OXkp6bVIL34-91" style="edgeStyle=orthogonalEdgeStyle;rounded=0;orthogonalLoop=1;jettySize=auto;html=1;exitX=0.5;exitY=1;exitDx=0;exitDy=0;entryX=0.5;entryY=0;entryDx=0;entryDy=0;" parent="WIyWlLk6GJQsqaUBKTNV-1" source="3wCkGZQV_pcTR9l7CTKe-10" target="dgOty0l77OXkp6bVIL34-81" edge="1">
          <mxGeometry relative="1" as="geometry">
            <mxPoint x="1217" y="1633.5" as="sourcePoint" />
            <Array as="points">
              <mxPoint x="1217" y="1660" />
              <mxPoint x="1297" y="1660" />
            </Array>
          </mxGeometry>
        </mxCell>
        <mxCell id="dgOty0l77OXkp6bVIL34-92" style="edgeStyle=orthogonalEdgeStyle;rounded=0;orthogonalLoop=1;jettySize=auto;html=1;exitX=0.5;exitY=1;exitDx=0;exitDy=0;entryX=0.433;entryY=0.129;entryDx=0;entryDy=0;entryPerimeter=0;" parent="WIyWlLk6GJQsqaUBKTNV-1" source="dgOty0l77OXkp6bVIL34-88" target="dgOty0l77OXkp6bVIL34-54" edge="1">
          <mxGeometry relative="1" as="geometry" />
        </mxCell>
        <mxCell id="dgOty0l77OXkp6bVIL34-88" value="UserController" style="swimlane;fontStyle=1;align=center;verticalAlign=top;childLayout=stackLayout;horizontal=1;startSize=30;horizontalStack=0;resizeParent=1;resizeLast=0;collapsible=1;marginBottom=0;rounded=0;shadow=0;strokeWidth=1;" parent="WIyWlLk6GJQsqaUBKTNV-1" vertex="1">
          <mxGeometry x="496" y="1610" width="160" height="40" as="geometry">
            <mxRectangle x="130" y="380" width="160" height="26" as="alternateBounds" />
          </mxGeometry>
        </mxCell>
        <mxCell id="dgOty0l77OXkp6bVIL34-93" value="Id&lt;br&gt;Accesess" style="text;html=1;align=center;verticalAlign=middle;whiteSpace=wrap;rounded=0;fillColor=#f5f5f5;fontColor=#333333;strokeColor=#666666;" parent="WIyWlLk6GJQsqaUBKTNV-1" vertex="1">
          <mxGeometry x="270" y="1861" width="90" height="60" as="geometry" />
        </mxCell>
        <mxCell id="dgOty0l77OXkp6bVIL34-94" value="Properties&lt;br&gt;Policies&lt;br&gt;quantity in store" style="text;html=1;align=center;verticalAlign=middle;whiteSpace=wrap;rounded=0;fillColor=#f5f5f5;fontColor=#333333;strokeColor=#666666;" parent="WIyWlLk6GJQsqaUBKTNV-1" vertex="1">
          <mxGeometry x="1547" y="1665" width="90" height="60" as="geometry" />
        </mxCell>
        <mxCell id="dgOty0l77OXkp6bVIL34-98" value="Id &amp;amp; empID&lt;br&gt;Inventory&lt;br&gt;policies &amp;amp; rules&lt;br&gt;dict: item-quantity&lt;br&gt;active\inactive&lt;br&gt;Managers,Admin, Sellers" style="text;html=1;align=center;verticalAlign=middle;whiteSpace=wrap;rounded=0;fillColor=#f5f5f5;fontColor=#333333;strokeColor=#666666;" parent="WIyWlLk6GJQsqaUBKTNV-1" vertex="1">
          <mxGeometry x="1330" y="1570" width="140" height="100" as="geometry" />
        </mxCell>
        <mxCell id="e1XWONMxhsrJTEbYBpTl-7" value="ID:&lt;br&gt;storeID &amp;amp; productID" style="text;html=1;align=center;verticalAlign=middle;whiteSpace=wrap;rounded=0;fillColor=#f5f5f5;fontColor=#333333;strokeColor=#666666;" parent="WIyWlLk6GJQsqaUBKTNV-1" vertex="1">
          <mxGeometry x="1452" y="1780" width="90" height="60" as="geometry" />
        </mxCell>
        <mxCell id="e1XWONMxhsrJTEbYBpTl-14" value="ExternalServices" style="swimlane;fontStyle=1;align=center;verticalAlign=top;childLayout=stackLayout;horizontal=1;startSize=26;horizontalStack=0;resizeParent=1;resizeLast=0;collapsible=1;marginBottom=0;rounded=0;shadow=0;strokeWidth=1;" parent="WIyWlLk6GJQsqaUBKTNV-1" vertex="1">
          <mxGeometry x="1120.5" y="1350" width="160" height="30" as="geometry">
            <mxRectangle x="130" y="380" width="160" height="26" as="alternateBounds" />
          </mxGeometry>
        </mxCell>
        <mxCell id="e1XWONMxhsrJTEbYBpTl-15" style="edgeStyle=orthogonalEdgeStyle;rounded=0;orthogonalLoop=1;jettySize=auto;html=1;exitX=0.5;exitY=0;exitDx=0;exitDy=0;strokeWidth=1;startArrow=none;startFill=0;endArrow=none;endFill=0;" parent="WIyWlLk6GJQsqaUBKTNV-1" edge="1">
          <mxGeometry relative="1" as="geometry">
            <mxPoint x="1135.5" y="1458" as="sourcePoint" />
            <mxPoint x="1135.5" y="1418" as="targetPoint" />
            <Array as="points">
              <mxPoint x="1135.5" y="1428" />
              <mxPoint x="1135.5" y="1428" />
            </Array>
          </mxGeometry>
        </mxCell>
        <mxCell id="e1XWONMxhsrJTEbYBpTl-16" style="edgeStyle=orthogonalEdgeStyle;rounded=0;orthogonalLoop=1;jettySize=auto;html=1;exitX=0.5;exitY=0;exitDx=0;exitDy=0;strokeWidth=1;startArrow=none;startFill=0;endArrow=none;endFill=0;" parent="WIyWlLk6GJQsqaUBKTNV-1" edge="1">
          <mxGeometry relative="1" as="geometry">
            <mxPoint x="1335.5" y="1418" as="targetPoint" />
            <mxPoint x="1335.5" y="1458" as="sourcePoint" />
          </mxGeometry>
        </mxCell>
        <mxCell id="e1XWONMxhsrJTEbYBpTl-17" value="" style="triangle;whiteSpace=wrap;html=1;rotation=-90;" parent="WIyWlLk6GJQsqaUBKTNV-1" vertex="1">
          <mxGeometry x="1228.5" y="1398" width="20" height="20" as="geometry" />
        </mxCell>
        <mxCell id="e1XWONMxhsrJTEbYBpTl-18" value="" style="endArrow=none;html=1;rounded=0;strokeWidth=1;entryX=0.497;entryY=0.996;entryDx=0;entryDy=0;entryPerimeter=0;exitX=1;exitY=0.5;exitDx=0;exitDy=0;" parent="WIyWlLk6GJQsqaUBKTNV-1" source="e1XWONMxhsrJTEbYBpTl-17" edge="1">
          <mxGeometry width="50" height="50" relative="1" as="geometry">
            <mxPoint x="1238.5" y="1400" as="sourcePoint" />
            <mxPoint x="1238.5" y="1380" as="targetPoint" />
          </mxGeometry>
        </mxCell>
        <mxCell id="e1XWONMxhsrJTEbYBpTl-19" value="" style="endArrow=none;html=1;rounded=0;strokeWidth=1;" parent="WIyWlLk6GJQsqaUBKTNV-1" edge="1">
          <mxGeometry width="50" height="50" relative="1" as="geometry">
            <mxPoint x="1135.5" y="1418" as="sourcePoint" />
            <mxPoint x="1335.5" y="1418" as="targetPoint" />
          </mxGeometry>
        </mxCell>
        <mxCell id="e1XWONMxhsrJTEbYBpTl-20" value="implements" style="text;html=1;align=center;verticalAlign=middle;resizable=0;points=[];autosize=1;strokeColor=none;fillColor=none;" parent="WIyWlLk6GJQsqaUBKTNV-1" vertex="1">
          <mxGeometry x="1241.5" y="1388" width="80" height="30" as="geometry" />
        </mxCell>
        <mxCell id="e1XWONMxhsrJTEbYBpTl-21" value="Payment" style="swimlane;fontStyle=1;align=center;verticalAlign=top;childLayout=stackLayout;horizontal=1;startSize=26;horizontalStack=0;resizeParent=1;resizeLast=0;collapsible=1;marginBottom=0;rounded=0;shadow=0;strokeWidth=1;" parent="WIyWlLk6GJQsqaUBKTNV-1" vertex="1">
          <mxGeometry x="1045.5" y="1456" width="160" height="34" as="geometry">
            <mxRectangle x="130" y="380" width="160" height="26" as="alternateBounds" />
          </mxGeometry>
        </mxCell>
        <mxCell id="e1XWONMxhsrJTEbYBpTl-22" value="" style="line;html=1;strokeWidth=1;align=left;verticalAlign=middle;spacingTop=-1;spacingLeft=3;spacingRight=3;rotatable=0;labelPosition=right;points=[];portConstraint=eastwest;" parent="e1XWONMxhsrJTEbYBpTl-21" vertex="1">
          <mxGeometry y="26" width="160" height="8" as="geometry" />
        </mxCell>
        <mxCell id="e1XWONMxhsrJTEbYBpTl-23" value="Supply" style="swimlane;fontStyle=1;align=center;verticalAlign=top;childLayout=stackLayout;horizontal=1;startSize=26;horizontalStack=0;resizeParent=1;resizeLast=0;collapsible=1;marginBottom=0;rounded=0;shadow=0;strokeWidth=1;" parent="WIyWlLk6GJQsqaUBKTNV-1" vertex="1">
          <mxGeometry x="1255.5" y="1456" width="160" height="34" as="geometry">
            <mxRectangle x="130" y="380" width="160" height="26" as="alternateBounds" />
          </mxGeometry>
        </mxCell>
        <mxCell id="e1XWONMxhsrJTEbYBpTl-24" value="" style="line;html=1;strokeWidth=1;align=left;verticalAlign=middle;spacingTop=-1;spacingLeft=3;spacingRight=3;rotatable=0;labelPosition=right;points=[];portConstraint=eastwest;" parent="e1XWONMxhsrJTEbYBpTl-23" vertex="1">
          <mxGeometry y="26" width="160" height="8" as="geometry" />
        </mxCell>
        <mxCell id="e1XWONMxhsrJTEbYBpTl-26" value="returns approvals" style="text;html=1;align=center;verticalAlign=middle;whiteSpace=wrap;rounded=0;fillColor=#f5f5f5;fontColor=#333333;strokeColor=#666666;" parent="WIyWlLk6GJQsqaUBKTNV-1" vertex="1">
          <mxGeometry x="1158.5" y="1270" width="90" height="60" as="geometry" />
        </mxCell>
        <mxCell id="e1XWONMxhsrJTEbYBpTl-30" value="will hold all the messages in the database with indicator on whether they were delivered or something" style="text;html=1;align=center;verticalAlign=middle;whiteSpace=wrap;rounded=0;fillColor=#f5f5f5;fontColor=#333333;strokeColor=#666666;" parent="WIyWlLk6GJQsqaUBKTNV-1" vertex="1">
          <mxGeometry x="390" y="1398" width="154" height="60" as="geometry" />
        </mxCell>
        <mxCell id="e1XWONMxhsrJTEbYBpTl-34" value="Password&lt;br&gt;Validator" style="text;html=1;align=center;verticalAlign=middle;whiteSpace=wrap;rounded=0;fillColor=#f5f5f5;fontColor=#333333;strokeColor=#666666;" parent="WIyWlLk6GJQsqaUBKTNV-1" vertex="1">
          <mxGeometry x="400" y="1610" width="90" height="60" as="geometry" />
        </mxCell>
        <mxCell id="3wCkGZQV_pcTR9l7CTKe-8" value="There can&#39;t be more than 1 basket for each store for each user" style="text;html=1;align=center;verticalAlign=middle;whiteSpace=wrap;rounded=0;fillColor=#f5f5f5;fontColor=#333333;strokeColor=#666666;" parent="WIyWlLk6GJQsqaUBKTNV-1" vertex="1">
          <mxGeometry x="483" y="1867" width="100" height="80" as="geometry" />
        </mxCell>
        <mxCell id="3wCkGZQV_pcTR9l7CTKe-10" value="StoreController" style="swimlane;fontStyle=1;align=center;verticalAlign=top;childLayout=stackLayout;horizontal=1;startSize=27;horizontalStack=0;resizeParent=1;resizeLast=0;collapsible=1;marginBottom=0;rounded=0;shadow=0;strokeWidth=1;" parent="WIyWlLk6GJQsqaUBKTNV-1" vertex="1">
          <mxGeometry x="1137" y="1603.5" width="160" height="36.5" as="geometry">
            <mxRectangle x="130" y="380" width="160" height="26" as="alternateBounds" />
          </mxGeometry>
        </mxCell>
        <mxCell id="3wCkGZQV_pcTR9l7CTKe-11" value="&lt;&lt;Singleton&gt;&gt;&#xa;MessageController" style="swimlane;fontStyle=1;align=center;verticalAlign=top;childLayout=stackLayout;horizontal=1;startSize=40;horizontalStack=0;resizeParent=1;resizeLast=0;collapsible=1;marginBottom=0;rounded=0;shadow=0;strokeWidth=1;" parent="WIyWlLk6GJQsqaUBKTNV-1" vertex="1">
          <mxGeometry x="390" y="1458" width="160" height="50" as="geometry">
            <mxRectangle x="130" y="380" width="160" height="26" as="alternateBounds" />
          </mxGeometry>
        </mxCell>
        <mxCell id="3wCkGZQV_pcTR9l7CTKe-12" value="&lt;&lt;Singleton&gt;&gt;&#xa;TransactionHistory" style="swimlane;fontStyle=1;align=center;verticalAlign=top;childLayout=stackLayout;horizontal=1;startSize=40;horizontalStack=0;resizeParent=1;resizeLast=0;collapsible=1;marginBottom=0;rounded=0;shadow=0;strokeWidth=1;" parent="WIyWlLk6GJQsqaUBKTNV-1" vertex="1">
          <mxGeometry x="132" y="1458" width="160" height="50" as="geometry">
            <mxRectangle x="130" y="380" width="160" height="26" as="alternateBounds" />
          </mxGeometry>
        </mxCell>
        <mxCell id="3wCkGZQV_pcTR9l7CTKe-16" value="1" style="text;html=1;align=center;verticalAlign=middle;resizable=0;points=[];autosize=1;strokeColor=none;fillColor=none;" parent="WIyWlLk6GJQsqaUBKTNV-1" vertex="1">
          <mxGeometry x="601" y="1741" width="30" height="30" as="geometry" />
        </mxCell>
        <mxCell id="3wCkGZQV_pcTR9l7CTKe-17" value="1" style="text;html=1;align=center;verticalAlign=middle;resizable=0;points=[];autosize=1;strokeColor=none;fillColor=none;" parent="WIyWlLk6GJQsqaUBKTNV-1" vertex="1">
          <mxGeometry x="520" y="1699" width="30" height="30" as="geometry" />
        </mxCell>
        <mxCell id="3wCkGZQV_pcTR9l7CTKe-18" value="1" style="text;html=1;align=center;verticalAlign=middle;resizable=0;points=[];autosize=1;strokeColor=none;fillColor=none;" parent="WIyWlLk6GJQsqaUBKTNV-1" vertex="1">
          <mxGeometry x="301" y="1699" width="30" height="30" as="geometry" />
        </mxCell>
        <mxCell id="3wCkGZQV_pcTR9l7CTKe-28" value="will hold all the transactions&#39; information in the database&amp;nbsp;" style="text;html=1;align=center;verticalAlign=middle;whiteSpace=wrap;rounded=0;fillColor=#f5f5f5;fontColor=#333333;strokeColor=#666666;" parent="WIyWlLk6GJQsqaUBKTNV-1" vertex="1">
          <mxGeometry x="132" y="1398" width="140" height="60" as="geometry" />
        </mxCell>
        <mxCell id="3wCkGZQV_pcTR9l7CTKe-29" value="regular \ bid \ general discounts" style="text;html=1;align=center;verticalAlign=middle;whiteSpace=wrap;rounded=0;fillColor=#f5f5f5;fontColor=#333333;strokeColor=#666666;" parent="WIyWlLk6GJQsqaUBKTNV-1" vertex="1">
          <mxGeometry x="940" y="1876" width="130" height="34" as="geometry" />
        </mxCell>
        <mxCell id="3wCkGZQV_pcTR9l7CTKe-30" style="edgeStyle=orthogonalEdgeStyle;rounded=0;orthogonalLoop=1;jettySize=auto;html=1;exitX=0;exitY=0.5;exitDx=0;exitDy=0;entryX=0.624;entryY=0.01;entryDx=0;entryDy=0;entryPerimeter=0;fontSize=8;" parent="WIyWlLk6GJQsqaUBKTNV-1" target="3wCkGZQV_pcTR9l7CTKe-31" edge="1">
          <mxGeometry relative="1" as="geometry">
            <mxPoint x="1217" y="1693" as="sourcePoint" />
          </mxGeometry>
        </mxCell>
        <mxCell id="3wCkGZQV_pcTR9l7CTKe-31" value="Policy" style="swimlane;fontStyle=1;align=center;verticalAlign=top;childLayout=stackLayout;horizontal=1;startSize=26;horizontalStack=0;resizeParent=1;resizeLast=0;collapsible=1;marginBottom=0;rounded=0;shadow=0;strokeWidth=1;" parent="WIyWlLk6GJQsqaUBKTNV-1" vertex="1">
          <mxGeometry x="1027" y="1727" width="160" height="30" as="geometry">
            <mxRectangle x="130" y="380" width="160" height="26" as="alternateBounds" />
          </mxGeometry>
        </mxCell>
        <mxCell id="3wCkGZQV_pcTR9l7CTKe-52" style="edgeStyle=orthogonalEdgeStyle;rounded=0;orthogonalLoop=1;jettySize=auto;html=1;exitX=0.5;exitY=0;exitDx=0;exitDy=0;strokeWidth=1;startArrow=none;startFill=0;endArrow=none;endFill=0;" parent="WIyWlLk6GJQsqaUBKTNV-1" edge="1">
          <mxGeometry relative="1" as="geometry">
            <mxPoint x="1004" y="1835" as="sourcePoint" />
            <mxPoint x="1004" y="1795" as="targetPoint" />
            <Array as="points">
              <mxPoint x="1004" y="1805" />
              <mxPoint x="1004" y="1805" />
            </Array>
          </mxGeometry>
        </mxCell>
        <mxCell id="3wCkGZQV_pcTR9l7CTKe-53" style="edgeStyle=orthogonalEdgeStyle;rounded=0;orthogonalLoop=1;jettySize=auto;html=1;exitX=0.5;exitY=0;exitDx=0;exitDy=0;strokeWidth=1;startArrow=none;startFill=0;endArrow=none;endFill=0;" parent="WIyWlLk6GJQsqaUBKTNV-1" edge="1">
          <mxGeometry relative="1" as="geometry">
            <mxPoint x="1204" y="1795" as="targetPoint" />
            <mxPoint x="1204" y="1835" as="sourcePoint" />
          </mxGeometry>
        </mxCell>
        <mxCell id="3wCkGZQV_pcTR9l7CTKe-54" value="" style="triangle;whiteSpace=wrap;html=1;rotation=-90;" parent="WIyWlLk6GJQsqaUBKTNV-1" vertex="1">
          <mxGeometry x="1097" y="1775" width="20" height="20" as="geometry" />
        </mxCell>
        <mxCell id="3wCkGZQV_pcTR9l7CTKe-55" value="" style="endArrow=none;html=1;rounded=0;strokeWidth=1;entryX=0.497;entryY=0.996;entryDx=0;entryDy=0;entryPerimeter=0;exitX=1;exitY=0.5;exitDx=0;exitDy=0;" parent="WIyWlLk6GJQsqaUBKTNV-1" source="3wCkGZQV_pcTR9l7CTKe-54" edge="1">
          <mxGeometry width="50" height="50" relative="1" as="geometry">
            <mxPoint x="1107" y="1777" as="sourcePoint" />
            <mxPoint x="1107" y="1757" as="targetPoint" />
          </mxGeometry>
        </mxCell>
        <mxCell id="3wCkGZQV_pcTR9l7CTKe-56" value="" style="endArrow=none;html=1;rounded=0;strokeWidth=1;" parent="WIyWlLk6GJQsqaUBKTNV-1" edge="1">
          <mxGeometry width="50" height="50" relative="1" as="geometry">
            <mxPoint x="1004" y="1795" as="sourcePoint" />
            <mxPoint x="1204" y="1795" as="targetPoint" />
          </mxGeometry>
        </mxCell>
        <mxCell id="3wCkGZQV_pcTR9l7CTKe-57" value="implements" style="text;html=1;align=center;verticalAlign=middle;resizable=0;points=[];autosize=1;strokeColor=none;fillColor=none;" parent="WIyWlLk6GJQsqaUBKTNV-1" vertex="1">
          <mxGeometry x="1110" y="1765" width="80" height="30" as="geometry" />
        </mxCell>
        <mxCell id="3wCkGZQV_pcTR9l7CTKe-58" value="PurhcasePolicy" style="swimlane;fontStyle=1;align=center;verticalAlign=top;childLayout=stackLayout;horizontal=1;startSize=26;horizontalStack=0;resizeParent=1;resizeLast=0;collapsible=1;marginBottom=0;rounded=0;shadow=0;strokeWidth=1;" parent="WIyWlLk6GJQsqaUBKTNV-1" vertex="1">
          <mxGeometry x="914" y="1833" width="160" height="34" as="geometry">
            <mxRectangle x="130" y="380" width="160" height="26" as="alternateBounds" />
          </mxGeometry>
        </mxCell>
        <mxCell id="3wCkGZQV_pcTR9l7CTKe-59" value="" style="line;html=1;strokeWidth=1;align=left;verticalAlign=middle;spacingTop=-1;spacingLeft=3;spacingRight=3;rotatable=0;labelPosition=right;points=[];portConstraint=eastwest;" parent="3wCkGZQV_pcTR9l7CTKe-58" vertex="1">
          <mxGeometry y="26" width="160" height="8" as="geometry" />
        </mxCell>
        <mxCell id="3wCkGZQV_pcTR9l7CTKe-60" value="DiscountPolicy" style="swimlane;fontStyle=1;align=center;verticalAlign=top;childLayout=stackLayout;horizontal=1;startSize=26;horizontalStack=0;resizeParent=1;resizeLast=0;collapsible=1;marginBottom=0;rounded=0;shadow=0;strokeWidth=1;" parent="WIyWlLk6GJQsqaUBKTNV-1" vertex="1">
          <mxGeometry x="1124" y="1833" width="160" height="34" as="geometry">
            <mxRectangle x="130" y="380" width="160" height="26" as="alternateBounds" />
          </mxGeometry>
        </mxCell>
        <mxCell id="3wCkGZQV_pcTR9l7CTKe-61" value="" style="line;html=1;strokeWidth=1;align=left;verticalAlign=middle;spacingTop=-1;spacingLeft=3;spacingRight=3;rotatable=0;labelPosition=right;points=[];portConstraint=eastwest;" parent="3wCkGZQV_pcTR9l7CTKe-60" vertex="1">
          <mxGeometry y="26" width="160" height="8" as="geometry" />
        </mxCell>
        <mxCell id="3wCkGZQV_pcTR9l7CTKe-62" value="discounts" style="text;html=1;align=center;verticalAlign=middle;whiteSpace=wrap;rounded=0;fillColor=#f5f5f5;fontColor=#333333;strokeColor=#666666;" parent="WIyWlLk6GJQsqaUBKTNV-1" vertex="1">
          <mxGeometry x="1165" y="1880" width="90" height="20" as="geometry" />
        </mxCell>
        <mxCell id="3wCkGZQV_pcTR9l7CTKe-153" value="1" style="text;html=1;align=center;verticalAlign=middle;resizable=0;points=[];autosize=1;strokeColor=none;fillColor=none;" parent="WIyWlLk6GJQsqaUBKTNV-1" vertex="1">
          <mxGeometry x="727" y="1550" width="30" height="30" as="geometry" />
        </mxCell>
        <mxCell id="3wCkGZQV_pcTR9l7CTKe-154" value="1" style="text;html=1;align=center;verticalAlign=middle;resizable=0;points=[];autosize=1;strokeColor=none;fillColor=none;" parent="WIyWlLk6GJQsqaUBKTNV-1" vertex="1">
          <mxGeometry x="540" y="1570" width="30" height="30" as="geometry" />
        </mxCell>
        <mxCell id="3wCkGZQV_pcTR9l7CTKe-155" value="1" style="text;html=1;align=center;verticalAlign=middle;resizable=0;points=[];autosize=1;strokeColor=none;fillColor=none;" parent="WIyWlLk6GJQsqaUBKTNV-1" vertex="1">
          <mxGeometry x="780" y="1550" width="30" height="30" as="geometry" />
        </mxCell>
        <mxCell id="3wCkGZQV_pcTR9l7CTKe-157" value="1" style="text;html=1;align=center;verticalAlign=middle;resizable=0;points=[];autosize=1;strokeColor=none;fillColor=none;" parent="WIyWlLk6GJQsqaUBKTNV-1" vertex="1">
          <mxGeometry x="844" y="1508" width="30" height="30" as="geometry" />
        </mxCell>
        <mxCell id="3wCkGZQV_pcTR9l7CTKe-158" value="0...n" style="text;html=1;align=center;verticalAlign=middle;resizable=0;points=[];autosize=1;strokeColor=none;fillColor=none;" parent="WIyWlLk6GJQsqaUBKTNV-1" vertex="1">
          <mxGeometry x="1070" y="1368" width="50" height="30" as="geometry" />
        </mxCell>
        <mxCell id="3wCkGZQV_pcTR9l7CTKe-159" value="1" style="text;html=1;align=center;verticalAlign=middle;resizable=0;points=[];autosize=1;strokeColor=none;fillColor=none;" parent="WIyWlLk6GJQsqaUBKTNV-1" vertex="1">
          <mxGeometry x="1217" y="1560" width="30" height="30" as="geometry" />
        </mxCell>
        <mxCell id="3wCkGZQV_pcTR9l7CTKe-160" value="1" style="text;html=1;align=center;verticalAlign=middle;resizable=0;points=[];autosize=1;strokeColor=none;fillColor=none;" parent="WIyWlLk6GJQsqaUBKTNV-1" vertex="1">
          <mxGeometry x="1185.5" y="1635" width="30" height="30" as="geometry" />
        </mxCell>
        <mxCell id="3wCkGZQV_pcTR9l7CTKe-161" value="0...n" style="text;html=1;align=center;verticalAlign=middle;resizable=0;points=[];autosize=1;strokeColor=none;fillColor=none;" parent="WIyWlLk6GJQsqaUBKTNV-1" vertex="1">
          <mxGeometry x="1290" y="1650" width="50" height="30" as="geometry" />
        </mxCell>
        <mxCell id="3wCkGZQV_pcTR9l7CTKe-162" value="0...n" style="text;html=1;align=center;verticalAlign=middle;resizable=0;points=[];autosize=1;strokeColor=none;fillColor=none;" parent="WIyWlLk6GJQsqaUBKTNV-1" vertex="1">
          <mxGeometry x="160" y="1681" width="50" height="30" as="geometry" />
        </mxCell>
        <mxCell id="3wCkGZQV_pcTR9l7CTKe-163" value="0..n" style="text;html=1;align=center;verticalAlign=middle;resizable=0;points=[];autosize=1;strokeColor=none;fillColor=none;" parent="WIyWlLk6GJQsqaUBKTNV-1" vertex="1">
          <mxGeometry x="1560" y="1770" width="40" height="30" as="geometry" />
        </mxCell>
        <mxCell id="3wCkGZQV_pcTR9l7CTKe-164" value="0..n" style="text;html=1;align=center;verticalAlign=middle;resizable=0;points=[];autosize=1;strokeColor=none;fillColor=none;" parent="WIyWlLk6GJQsqaUBKTNV-1" vertex="1">
          <mxGeometry x="1470" y="1695" width="40" height="30" as="geometry" />
        </mxCell>
        <mxCell id="3wCkGZQV_pcTR9l7CTKe-165" value="1" style="text;html=1;align=center;verticalAlign=middle;resizable=0;points=[];autosize=1;strokeColor=none;fillColor=none;" parent="WIyWlLk6GJQsqaUBKTNV-1" vertex="1">
          <mxGeometry x="631" y="1852" width="30" height="30" as="geometry" />
        </mxCell>
        <mxCell id="3wCkGZQV_pcTR9l7CTKe-166" value="0...n" style="text;html=1;align=center;verticalAlign=middle;resizable=0;points=[];autosize=1;strokeColor=none;fillColor=none;" parent="WIyWlLk6GJQsqaUBKTNV-1" vertex="1">
          <mxGeometry x="1074" y="1695" width="50" height="30" as="geometry" />
        </mxCell>
        <mxCell id="3wCkGZQV_pcTR9l7CTKe-167" value="1" style="text;html=1;align=center;verticalAlign=middle;resizable=0;points=[];autosize=1;strokeColor=none;fillColor=none;" parent="WIyWlLk6GJQsqaUBKTNV-1" vertex="1">
          <mxGeometry x="1195" y="1695" width="30" height="30" as="geometry" />
        </mxCell>
        <mxCell id="3wCkGZQV_pcTR9l7CTKe-175" value="1" style="text;html=1;align=center;verticalAlign=middle;resizable=0;points=[];autosize=1;strokeColor=none;fillColor=none;" parent="WIyWlLk6GJQsqaUBKTNV-1" vertex="1">
          <mxGeometry x="571" y="1650" width="30" height="30" as="geometry" />
        </mxCell>
        <mxCell id="3wCkGZQV_pcTR9l7CTKe-177" style="edgeStyle=orthogonalEdgeStyle;rounded=0;orthogonalLoop=1;jettySize=auto;html=1;exitX=0.5;exitY=0;exitDx=0;exitDy=0;strokeWidth=1;startArrow=none;startFill=0;endArrow=none;endFill=0;" parent="WIyWlLk6GJQsqaUBKTNV-1" edge="1">
          <mxGeometry relative="1" as="geometry">
            <mxPoint x="120" y="2909" as="sourcePoint" />
            <mxPoint x="120" y="2869" as="targetPoint" />
            <Array as="points">
              <mxPoint x="120" y="2879" />
              <mxPoint x="120" y="2879" />
            </Array>
          </mxGeometry>
        </mxCell>
        <mxCell id="3wCkGZQV_pcTR9l7CTKe-178" style="edgeStyle=orthogonalEdgeStyle;rounded=0;orthogonalLoop=1;jettySize=auto;html=1;exitX=0.5;exitY=0;exitDx=0;exitDy=0;strokeWidth=1;startArrow=none;startFill=0;endArrow=none;endFill=0;" parent="WIyWlLk6GJQsqaUBKTNV-1" edge="1">
          <mxGeometry relative="1" as="geometry">
            <mxPoint x="320" y="2869" as="targetPoint" />
            <mxPoint x="320" y="2909" as="sourcePoint" />
          </mxGeometry>
        </mxCell>
        <mxCell id="3wCkGZQV_pcTR9l7CTKe-179" value="" style="triangle;whiteSpace=wrap;html=1;rotation=-90;" parent="WIyWlLk6GJQsqaUBKTNV-1" vertex="1">
          <mxGeometry x="213" y="2849" width="20" height="20" as="geometry" />
        </mxCell>
        <mxCell id="3wCkGZQV_pcTR9l7CTKe-180" value="" style="endArrow=none;html=1;rounded=0;strokeWidth=1;entryX=0.497;entryY=0.996;entryDx=0;entryDy=0;entryPerimeter=0;exitX=1;exitY=0.5;exitDx=0;exitDy=0;" parent="WIyWlLk6GJQsqaUBKTNV-1" source="3wCkGZQV_pcTR9l7CTKe-179" edge="1">
          <mxGeometry width="50" height="50" relative="1" as="geometry">
            <mxPoint x="223" y="2851" as="sourcePoint" />
            <mxPoint x="223" y="2831" as="targetPoint" />
          </mxGeometry>
        </mxCell>
        <mxCell id="3wCkGZQV_pcTR9l7CTKe-181" value="" style="endArrow=none;html=1;rounded=0;strokeWidth=1;" parent="WIyWlLk6GJQsqaUBKTNV-1" edge="1">
          <mxGeometry width="50" height="50" relative="1" as="geometry">
            <mxPoint x="120" y="2869" as="sourcePoint" />
            <mxPoint x="320" y="2869" as="targetPoint" />
          </mxGeometry>
        </mxCell>
        <mxCell id="3wCkGZQV_pcTR9l7CTKe-182" value="implements" style="text;html=1;align=center;verticalAlign=middle;resizable=0;points=[];autosize=1;strokeColor=none;fillColor=none;" parent="WIyWlLk6GJQsqaUBKTNV-1" vertex="1">
          <mxGeometry x="226" y="2839" width="80" height="30" as="geometry" />
        </mxCell>
        <mxCell id="3wCkGZQV_pcTR9l7CTKe-183" value="Guest" style="swimlane;fontStyle=1;align=center;verticalAlign=top;childLayout=stackLayout;horizontal=1;startSize=26;horizontalStack=0;resizeParent=1;resizeLast=0;collapsible=1;marginBottom=0;rounded=0;shadow=0;strokeWidth=1;" parent="WIyWlLk6GJQsqaUBKTNV-1" vertex="1">
          <mxGeometry x="30" y="2907" width="160" height="34" as="geometry">
            <mxRectangle x="130" y="380" width="160" height="26" as="alternateBounds" />
          </mxGeometry>
        </mxCell>
        <mxCell id="3wCkGZQV_pcTR9l7CTKe-184" value="" style="line;html=1;strokeWidth=1;align=left;verticalAlign=middle;spacingTop=-1;spacingLeft=3;spacingRight=3;rotatable=0;labelPosition=right;points=[];portConstraint=eastwest;" parent="3wCkGZQV_pcTR9l7CTKe-183" vertex="1">
          <mxGeometry y="26" width="160" height="8" as="geometry" />
        </mxCell>
        <mxCell id="3wCkGZQV_pcTR9l7CTKe-185" style="edgeStyle=orthogonalEdgeStyle;rounded=0;orthogonalLoop=1;jettySize=auto;html=1;exitX=1;exitY=0.5;exitDx=0;exitDy=0;entryX=0;entryY=0.5;entryDx=0;entryDy=0;" parent="WIyWlLk6GJQsqaUBKTNV-1" source="3wCkGZQV_pcTR9l7CTKe-186" target="3wCkGZQV_pcTR9l7CTKe-188" edge="1">
          <mxGeometry relative="1" as="geometry">
            <Array as="points">
              <mxPoint x="500" y="2816" />
              <mxPoint x="500" y="2816" />
            </Array>
          </mxGeometry>
        </mxCell>
        <mxCell id="3wCkGZQV_pcTR9l7CTKe-186" value="User" style="swimlane;fontStyle=1;align=center;verticalAlign=top;childLayout=stackLayout;horizontal=1;startSize=26;horizontalStack=0;resizeParent=1;resizeLast=0;collapsible=1;marginBottom=0;rounded=0;shadow=0;strokeWidth=1;" parent="WIyWlLk6GJQsqaUBKTNV-1" vertex="1">
          <mxGeometry x="147" y="2801" width="160" height="30" as="geometry">
            <mxRectangle x="130" y="380" width="160" height="26" as="alternateBounds" />
          </mxGeometry>
        </mxCell>
        <mxCell id="3wCkGZQV_pcTR9l7CTKe-187" style="edgeStyle=orthogonalEdgeStyle;rounded=0;orthogonalLoop=1;jettySize=auto;html=1;exitX=0.5;exitY=1;exitDx=0;exitDy=0;" parent="WIyWlLk6GJQsqaUBKTNV-1" source="3wCkGZQV_pcTR9l7CTKe-188" edge="1">
          <mxGeometry relative="1" as="geometry">
            <Array as="points">
              <mxPoint x="650" y="2900" />
              <mxPoint x="650" y="2900" />
            </Array>
            <mxPoint x="650" y="2910" as="targetPoint" />
          </mxGeometry>
        </mxCell>
        <mxCell id="3wCkGZQV_pcTR9l7CTKe-188" value="Cart" style="swimlane;fontStyle=1;align=center;verticalAlign=top;childLayout=stackLayout;horizontal=1;startSize=26;horizontalStack=0;resizeParent=1;resizeLast=0;collapsible=1;marginBottom=0;rounded=0;shadow=0;strokeWidth=1;" parent="WIyWlLk6GJQsqaUBKTNV-1" vertex="1">
          <mxGeometry x="570" y="2801" width="160" height="30" as="geometry">
            <mxRectangle x="130" y="380" width="160" height="26" as="alternateBounds" />
          </mxGeometry>
        </mxCell>
        <mxCell id="3wCkGZQV_pcTR9l7CTKe-189" value="Member" style="swimlane;fontStyle=1;align=center;verticalAlign=top;childLayout=stackLayout;horizontal=1;startSize=26;horizontalStack=0;resizeParent=1;resizeLast=0;collapsible=1;marginBottom=0;rounded=0;shadow=0;strokeWidth=1;" parent="WIyWlLk6GJQsqaUBKTNV-1" vertex="1">
          <mxGeometry x="240" y="2907" width="160" height="34" as="geometry">
            <mxRectangle x="130" y="380" width="160" height="26" as="alternateBounds" />
          </mxGeometry>
        </mxCell>
        <mxCell id="3wCkGZQV_pcTR9l7CTKe-190" value="" style="line;html=1;strokeWidth=1;align=left;verticalAlign=middle;spacingTop=-1;spacingLeft=3;spacingRight=3;rotatable=0;labelPosition=right;points=[];portConstraint=eastwest;" parent="3wCkGZQV_pcTR9l7CTKe-189" vertex="1">
          <mxGeometry y="26" width="160" height="8" as="geometry" />
        </mxCell>
        <mxCell id="3wCkGZQV_pcTR9l7CTKe-191" style="edgeStyle=orthogonalEdgeStyle;rounded=0;orthogonalLoop=1;jettySize=auto;html=1;dashed=1;fillColor=#fff2cc;strokeColor=#d6b656;" parent="WIyWlLk6GJQsqaUBKTNV-1" edge="1">
          <mxGeometry relative="1" as="geometry">
            <mxPoint x="680" y="2940" as="sourcePoint" />
            <mxPoint x="1570" y="2860" as="targetPoint" />
            <Array as="points">
              <mxPoint x="680" y="3040" />
              <mxPoint x="1570" y="3040" />
            </Array>
          </mxGeometry>
        </mxCell>
        <mxCell id="3wCkGZQV_pcTR9l7CTKe-192" value="Basket" style="swimlane;fontStyle=1;align=center;verticalAlign=top;childLayout=stackLayout;horizontal=1;startSize=26;horizontalStack=0;resizeParent=1;resizeLast=0;collapsible=1;marginBottom=0;rounded=0;shadow=0;strokeWidth=1;" parent="WIyWlLk6GJQsqaUBKTNV-1" vertex="1">
          <mxGeometry x="593" y="2912" width="160" height="30" as="geometry">
            <mxRectangle x="130" y="380" width="160" height="26" as="alternateBounds" />
          </mxGeometry>
        </mxCell>
        <mxCell id="3wCkGZQV_pcTR9l7CTKe-193" value="0..n" style="text;html=1;align=center;verticalAlign=middle;resizable=0;points=[];autosize=1;strokeColor=none;fillColor=none;" parent="WIyWlLk6GJQsqaUBKTNV-1" vertex="1">
          <mxGeometry x="654" y="2882" width="40" height="30" as="geometry" />
        </mxCell>
        <mxCell id="3wCkGZQV_pcTR9l7CTKe-194" style="edgeStyle=orthogonalEdgeStyle;rounded=0;orthogonalLoop=1;jettySize=auto;html=1;exitX=0.5;exitY=1;exitDx=0;exitDy=0;" parent="WIyWlLk6GJQsqaUBKTNV-1" source="3wCkGZQV_pcTR9l7CTKe-195" target="3wCkGZQV_pcTR9l7CTKe-196" edge="1">
          <mxGeometry relative="1" as="geometry">
            <Array as="points">
              <mxPoint x="1307" y="2820" />
              <mxPoint x="1507" y="2820" />
            </Array>
          </mxGeometry>
        </mxCell>
        <mxCell id="3wCkGZQV_pcTR9l7CTKe-195" value="Store" style="swimlane;fontStyle=1;align=center;verticalAlign=top;childLayout=stackLayout;horizontal=1;startSize=26;horizontalStack=0;resizeParent=1;resizeLast=0;collapsible=1;marginBottom=0;rounded=0;shadow=0;strokeWidth=1;" parent="WIyWlLk6GJQsqaUBKTNV-1" vertex="1">
          <mxGeometry x="1227" y="2770" width="160" height="30" as="geometry">
            <mxRectangle x="130" y="380" width="160" height="26" as="alternateBounds" />
          </mxGeometry>
        </mxCell>
        <mxCell id="3wCkGZQV_pcTR9l7CTKe-196" value="Product" style="swimlane;fontStyle=1;align=center;verticalAlign=top;childLayout=stackLayout;horizontal=1;startSize=26;horizontalStack=0;resizeParent=1;resizeLast=0;collapsible=1;marginBottom=0;rounded=0;shadow=0;strokeWidth=1;" parent="WIyWlLk6GJQsqaUBKTNV-1" vertex="1">
          <mxGeometry x="1427" y="2831" width="160" height="30" as="geometry">
            <mxRectangle x="130" y="380" width="160" height="26" as="alternateBounds" />
          </mxGeometry>
        </mxCell>
        <mxCell id="3wCkGZQV_pcTR9l7CTKe-197" value="1" style="text;html=1;align=center;verticalAlign=middle;resizable=0;points=[];autosize=1;strokeColor=none;fillColor=none;" parent="WIyWlLk6GJQsqaUBKTNV-1" vertex="1">
          <mxGeometry x="1277" y="2800" width="30" height="30" as="geometry" />
        </mxCell>
        <mxCell id="3wCkGZQV_pcTR9l7CTKe-198" style="edgeStyle=orthogonalEdgeStyle;rounded=0;orthogonalLoop=1;jettySize=auto;html=1;exitX=0.75;exitY=1;exitDx=0;exitDy=0;dashed=1;fillColor=#f8cecc;strokeColor=#b85450;" parent="WIyWlLk6GJQsqaUBKTNV-1" source="3wCkGZQV_pcTR9l7CTKe-201" target="3wCkGZQV_pcTR9l7CTKe-226" edge="1">
          <mxGeometry relative="1" as="geometry">
            <mxPoint x="884" y="2693.5" as="targetPoint" />
          </mxGeometry>
        </mxCell>
        <mxCell id="3wCkGZQV_pcTR9l7CTKe-199" style="edgeStyle=orthogonalEdgeStyle;rounded=0;orthogonalLoop=1;jettySize=auto;html=1;exitX=0.25;exitY=1;exitDx=0;exitDy=0;entryX=0.5;entryY=0;entryDx=0;entryDy=0;dashed=1;fillColor=#f8cecc;strokeColor=#b85450;" parent="WIyWlLk6GJQsqaUBKTNV-1" source="3wCkGZQV_pcTR9l7CTKe-201" target="3wCkGZQV_pcTR9l7CTKe-204" edge="1">
          <mxGeometry relative="1" as="geometry" />
        </mxCell>
        <mxCell id="3wCkGZQV_pcTR9l7CTKe-200" style="edgeStyle=orthogonalEdgeStyle;rounded=0;orthogonalLoop=1;jettySize=auto;html=1;fontSize=8;entryX=0.366;entryY=0.039;entryDx=0;entryDy=0;dashed=1;entryPerimeter=0;fillColor=#f8cecc;strokeColor=#b85450;" parent="WIyWlLk6GJQsqaUBKTNV-1" target="3wCkGZQV_pcTR9l7CTKe-211" edge="1">
          <mxGeometry relative="1" as="geometry">
            <mxPoint x="1014" y="2625" as="targetPoint" />
            <mxPoint x="812" y="2550" as="sourcePoint" />
            <Array as="points">
              <mxPoint x="813" y="3150" />
              <mxPoint x="812" y="3150" />
            </Array>
          </mxGeometry>
        </mxCell>
        <mxCell id="3wCkGZQV_pcTR9l7CTKe-201" value="Service" style="swimlane;fontStyle=1;align=center;verticalAlign=top;childLayout=stackLayout;horizontal=1;startSize=26;horizontalStack=0;resizeParent=1;resizeLast=0;collapsible=1;marginBottom=0;rounded=0;shadow=0;strokeWidth=1;" parent="WIyWlLk6GJQsqaUBKTNV-1" vertex="1">
          <mxGeometry x="737" y="2520" width="160" height="30" as="geometry">
            <mxRectangle x="130" y="380" width="160" height="26" as="alternateBounds" />
          </mxGeometry>
        </mxCell>
        <mxCell id="3wCkGZQV_pcTR9l7CTKe-202" style="edgeStyle=orthogonalEdgeStyle;rounded=0;orthogonalLoop=1;jettySize=auto;html=1;exitX=0.5;exitY=1;exitDx=0;exitDy=0;entryX=0.5;entryY=0;entryDx=0;entryDy=0;" parent="WIyWlLk6GJQsqaUBKTNV-1" source="3wCkGZQV_pcTR9l7CTKe-226" target="3wCkGZQV_pcTR9l7CTKe-195" edge="1">
          <mxGeometry relative="1" as="geometry">
            <mxPoint x="1227" y="2723.5" as="sourcePoint" />
            <Array as="points">
              <mxPoint x="1227" y="2750" />
              <mxPoint x="1307" y="2750" />
            </Array>
          </mxGeometry>
        </mxCell>
        <mxCell id="3wCkGZQV_pcTR9l7CTKe-203" style="edgeStyle=orthogonalEdgeStyle;rounded=0;orthogonalLoop=1;jettySize=auto;html=1;exitX=0.5;exitY=1;exitDx=0;exitDy=0;entryX=0.433;entryY=0.129;entryDx=0;entryDy=0;entryPerimeter=0;" parent="WIyWlLk6GJQsqaUBKTNV-1" source="3wCkGZQV_pcTR9l7CTKe-204" target="3wCkGZQV_pcTR9l7CTKe-186" edge="1">
          <mxGeometry relative="1" as="geometry" />
        </mxCell>
        <mxCell id="3wCkGZQV_pcTR9l7CTKe-204" value="UserController" style="swimlane;fontStyle=1;align=center;verticalAlign=top;childLayout=stackLayout;horizontal=1;startSize=30;horizontalStack=0;resizeParent=1;resizeLast=0;collapsible=1;marginBottom=0;rounded=0;shadow=0;strokeWidth=1;" parent="WIyWlLk6GJQsqaUBKTNV-1" vertex="1">
          <mxGeometry x="506" y="2700" width="160" height="40" as="geometry">
            <mxRectangle x="130" y="380" width="160" height="26" as="alternateBounds" />
          </mxGeometry>
        </mxCell>
        <mxCell id="3wCkGZQV_pcTR9l7CTKe-205" value="Id&lt;br&gt;Accesess" style="text;html=1;align=center;verticalAlign=middle;whiteSpace=wrap;rounded=0;fillColor=#f5f5f5;fontColor=#333333;strokeColor=#666666;" parent="WIyWlLk6GJQsqaUBKTNV-1" vertex="1">
          <mxGeometry x="280" y="2951" width="90" height="60" as="geometry" />
        </mxCell>
        <mxCell id="3wCkGZQV_pcTR9l7CTKe-206" value="Properties&lt;br&gt;Policies&lt;br&gt;quantity in store" style="text;html=1;align=center;verticalAlign=middle;whiteSpace=wrap;rounded=0;fillColor=#f5f5f5;fontColor=#333333;strokeColor=#666666;" parent="WIyWlLk6GJQsqaUBKTNV-1" vertex="1">
          <mxGeometry x="1535" y="2756" width="90" height="60" as="geometry" />
        </mxCell>
        <mxCell id="3wCkGZQV_pcTR9l7CTKe-207" value="Id &amp;amp; empID&lt;br&gt;Inventory&lt;br&gt;policies &amp;amp; rules&lt;br&gt;dict: item-quantity&lt;br&gt;active\inactive&lt;br&gt;Managers,Admin, Sellers" style="text;html=1;align=center;verticalAlign=middle;whiteSpace=wrap;rounded=0;fillColor=#f5f5f5;fontColor=#333333;strokeColor=#666666;" parent="WIyWlLk6GJQsqaUBKTNV-1" vertex="1">
          <mxGeometry x="1340" y="2660" width="140" height="100" as="geometry" />
        </mxCell>
        <mxCell id="3wCkGZQV_pcTR9l7CTKe-210" value="ID:&lt;br&gt;storeID &amp;amp; productID" style="text;html=1;align=center;verticalAlign=middle;whiteSpace=wrap;rounded=0;fillColor=#f5f5f5;fontColor=#333333;strokeColor=#666666;" parent="WIyWlLk6GJQsqaUBKTNV-1" vertex="1">
          <mxGeometry x="1462" y="2870" width="90" height="60" as="geometry" />
        </mxCell>
        <mxCell id="3wCkGZQV_pcTR9l7CTKe-211" value="ExternalServices" style="swimlane;fontStyle=1;align=center;verticalAlign=top;childLayout=stackLayout;horizontal=1;startSize=26;horizontalStack=0;resizeParent=1;resizeLast=0;collapsible=1;marginBottom=0;rounded=0;shadow=0;strokeWidth=1;" parent="WIyWlLk6GJQsqaUBKTNV-1" vertex="1">
          <mxGeometry x="753.5" y="3170" width="160" height="30" as="geometry">
            <mxRectangle x="130" y="380" width="160" height="26" as="alternateBounds" />
          </mxGeometry>
        </mxCell>
        <mxCell id="3wCkGZQV_pcTR9l7CTKe-212" style="edgeStyle=orthogonalEdgeStyle;rounded=0;orthogonalLoop=1;jettySize=auto;html=1;exitX=0.5;exitY=0;exitDx=0;exitDy=0;strokeWidth=1;startArrow=none;startFill=0;endArrow=none;endFill=0;" parent="WIyWlLk6GJQsqaUBKTNV-1" edge="1">
          <mxGeometry relative="1" as="geometry">
            <mxPoint x="768.5" y="3278" as="sourcePoint" />
            <mxPoint x="768.5" y="3238" as="targetPoint" />
            <Array as="points">
              <mxPoint x="768.5" y="3248" />
              <mxPoint x="768.5" y="3248" />
            </Array>
          </mxGeometry>
        </mxCell>
        <mxCell id="3wCkGZQV_pcTR9l7CTKe-213" style="edgeStyle=orthogonalEdgeStyle;rounded=0;orthogonalLoop=1;jettySize=auto;html=1;exitX=0.5;exitY=0;exitDx=0;exitDy=0;strokeWidth=1;startArrow=none;startFill=0;endArrow=none;endFill=0;" parent="WIyWlLk6GJQsqaUBKTNV-1" edge="1">
          <mxGeometry relative="1" as="geometry">
            <mxPoint x="968.5" y="3238" as="targetPoint" />
            <mxPoint x="968.5" y="3278" as="sourcePoint" />
          </mxGeometry>
        </mxCell>
        <mxCell id="3wCkGZQV_pcTR9l7CTKe-214" value="" style="triangle;whiteSpace=wrap;html=1;rotation=-90;" parent="WIyWlLk6GJQsqaUBKTNV-1" vertex="1">
          <mxGeometry x="861.5" y="3218" width="20" height="20" as="geometry" />
        </mxCell>
        <mxCell id="3wCkGZQV_pcTR9l7CTKe-215" value="" style="endArrow=none;html=1;rounded=0;strokeWidth=1;entryX=0.497;entryY=0.996;entryDx=0;entryDy=0;entryPerimeter=0;exitX=1;exitY=0.5;exitDx=0;exitDy=0;" parent="WIyWlLk6GJQsqaUBKTNV-1" source="3wCkGZQV_pcTR9l7CTKe-214" edge="1">
          <mxGeometry width="50" height="50" relative="1" as="geometry">
            <mxPoint x="871.5" y="3220" as="sourcePoint" />
            <mxPoint x="871.5" y="3200" as="targetPoint" />
          </mxGeometry>
        </mxCell>
        <mxCell id="3wCkGZQV_pcTR9l7CTKe-216" value="" style="endArrow=none;html=1;rounded=0;strokeWidth=1;" parent="WIyWlLk6GJQsqaUBKTNV-1" edge="1">
          <mxGeometry width="50" height="50" relative="1" as="geometry">
            <mxPoint x="768.5" y="3238" as="sourcePoint" />
            <mxPoint x="968.5" y="3238" as="targetPoint" />
          </mxGeometry>
        </mxCell>
        <mxCell id="3wCkGZQV_pcTR9l7CTKe-217" value="implements" style="text;html=1;align=center;verticalAlign=middle;resizable=0;points=[];autosize=1;strokeColor=none;fillColor=none;" parent="WIyWlLk6GJQsqaUBKTNV-1" vertex="1">
          <mxGeometry x="874.5" y="3208" width="80" height="30" as="geometry" />
        </mxCell>
        <mxCell id="3wCkGZQV_pcTR9l7CTKe-218" value="Payment" style="swimlane;fontStyle=1;align=center;verticalAlign=top;childLayout=stackLayout;horizontal=1;startSize=26;horizontalStack=0;resizeParent=1;resizeLast=0;collapsible=1;marginBottom=0;rounded=0;shadow=0;strokeWidth=1;" parent="WIyWlLk6GJQsqaUBKTNV-1" vertex="1">
          <mxGeometry x="678.5" y="3276" width="160" height="34" as="geometry">
            <mxRectangle x="130" y="380" width="160" height="26" as="alternateBounds" />
          </mxGeometry>
        </mxCell>
        <mxCell id="3wCkGZQV_pcTR9l7CTKe-219" value="" style="line;html=1;strokeWidth=1;align=left;verticalAlign=middle;spacingTop=-1;spacingLeft=3;spacingRight=3;rotatable=0;labelPosition=right;points=[];portConstraint=eastwest;" parent="3wCkGZQV_pcTR9l7CTKe-218" vertex="1">
          <mxGeometry y="26" width="160" height="8" as="geometry" />
        </mxCell>
        <mxCell id="3wCkGZQV_pcTR9l7CTKe-220" value="Supply" style="swimlane;fontStyle=1;align=center;verticalAlign=top;childLayout=stackLayout;horizontal=1;startSize=26;horizontalStack=0;resizeParent=1;resizeLast=0;collapsible=1;marginBottom=0;rounded=0;shadow=0;strokeWidth=1;" parent="WIyWlLk6GJQsqaUBKTNV-1" vertex="1">
          <mxGeometry x="888.5" y="3276" width="160" height="34" as="geometry">
            <mxRectangle x="130" y="380" width="160" height="26" as="alternateBounds" />
          </mxGeometry>
        </mxCell>
        <mxCell id="3wCkGZQV_pcTR9l7CTKe-221" value="" style="line;html=1;strokeWidth=1;align=left;verticalAlign=middle;spacingTop=-1;spacingLeft=3;spacingRight=3;rotatable=0;labelPosition=right;points=[];portConstraint=eastwest;" parent="3wCkGZQV_pcTR9l7CTKe-220" vertex="1">
          <mxGeometry y="26" width="160" height="8" as="geometry" />
        </mxCell>
        <mxCell id="3wCkGZQV_pcTR9l7CTKe-222" value="returns approvals" style="text;html=1;align=center;verticalAlign=middle;whiteSpace=wrap;rounded=0;fillColor=#f5f5f5;fontColor=#333333;strokeColor=#666666;" parent="WIyWlLk6GJQsqaUBKTNV-1" vertex="1">
          <mxGeometry x="844" y="3100" width="90" height="60" as="geometry" />
        </mxCell>
        <mxCell id="3wCkGZQV_pcTR9l7CTKe-223" value="will hold all the messages in the database with indicator on whether they were delivered or something" style="text;html=1;align=center;verticalAlign=middle;whiteSpace=wrap;rounded=0;fillColor=#f5f5f5;fontColor=#333333;strokeColor=#666666;" parent="WIyWlLk6GJQsqaUBKTNV-1" vertex="1">
          <mxGeometry x="336" y="3120" width="154" height="60" as="geometry" />
        </mxCell>
        <mxCell id="3wCkGZQV_pcTR9l7CTKe-224" value="Password&lt;br&gt;Validator" style="text;html=1;align=center;verticalAlign=middle;whiteSpace=wrap;rounded=0;fillColor=#f5f5f5;fontColor=#333333;strokeColor=#666666;" parent="WIyWlLk6GJQsqaUBKTNV-1" vertex="1">
          <mxGeometry x="410" y="2700" width="90" height="60" as="geometry" />
        </mxCell>
        <mxCell id="3wCkGZQV_pcTR9l7CTKe-225" value="There can&#39;t be more than 1 basket for each store for each user" style="text;html=1;align=center;verticalAlign=middle;whiteSpace=wrap;rounded=0;fillColor=#f5f5f5;fontColor=#333333;strokeColor=#666666;" parent="WIyWlLk6GJQsqaUBKTNV-1" vertex="1">
          <mxGeometry x="493" y="2957" width="100" height="80" as="geometry" />
        </mxCell>
        <mxCell id="3wCkGZQV_pcTR9l7CTKe-226" value="StoreController" style="swimlane;fontStyle=1;align=center;verticalAlign=top;childLayout=stackLayout;horizontal=1;startSize=27;horizontalStack=0;resizeParent=1;resizeLast=0;collapsible=1;marginBottom=0;rounded=0;shadow=0;strokeWidth=1;" parent="WIyWlLk6GJQsqaUBKTNV-1" vertex="1">
          <mxGeometry x="1147" y="2693.5" width="160" height="36.5" as="geometry">
            <mxRectangle x="130" y="380" width="160" height="26" as="alternateBounds" />
          </mxGeometry>
        </mxCell>
        <mxCell id="3wCkGZQV_pcTR9l7CTKe-227" value="&lt;&lt;Singleton&gt;&gt;&#xa;MessageController" style="swimlane;fontStyle=1;align=center;verticalAlign=top;childLayout=stackLayout;horizontal=1;startSize=40;horizontalStack=0;resizeParent=1;resizeLast=0;collapsible=1;marginBottom=0;rounded=0;shadow=0;strokeWidth=1;" parent="WIyWlLk6GJQsqaUBKTNV-1" vertex="1">
          <mxGeometry x="336" y="3180" width="160" height="50" as="geometry">
            <mxRectangle x="130" y="380" width="160" height="26" as="alternateBounds" />
          </mxGeometry>
        </mxCell>
        <mxCell id="3wCkGZQV_pcTR9l7CTKe-228" value="&lt;&lt;Singleton&gt;&gt;&#xa;TransactionHistory" style="swimlane;fontStyle=1;align=center;verticalAlign=top;childLayout=stackLayout;horizontal=1;startSize=40;horizontalStack=0;resizeParent=1;resizeLast=0;collapsible=1;marginBottom=0;rounded=0;shadow=0;strokeWidth=1;" parent="WIyWlLk6GJQsqaUBKTNV-1" vertex="1">
          <mxGeometry x="78" y="3180" width="160" height="50" as="geometry">
            <mxRectangle x="130" y="380" width="160" height="26" as="alternateBounds" />
          </mxGeometry>
        </mxCell>
        <mxCell id="3wCkGZQV_pcTR9l7CTKe-229" value="1" style="text;html=1;align=center;verticalAlign=middle;resizable=0;points=[];autosize=1;strokeColor=none;fillColor=none;" parent="WIyWlLk6GJQsqaUBKTNV-1" vertex="1">
          <mxGeometry x="611" y="2831" width="30" height="30" as="geometry" />
        </mxCell>
        <mxCell id="3wCkGZQV_pcTR9l7CTKe-230" value="1" style="text;html=1;align=center;verticalAlign=middle;resizable=0;points=[];autosize=1;strokeColor=none;fillColor=none;" parent="WIyWlLk6GJQsqaUBKTNV-1" vertex="1">
          <mxGeometry x="530" y="2789" width="30" height="30" as="geometry" />
        </mxCell>
        <mxCell id="3wCkGZQV_pcTR9l7CTKe-231" value="1" style="text;html=1;align=center;verticalAlign=middle;resizable=0;points=[];autosize=1;strokeColor=none;fillColor=none;" parent="WIyWlLk6GJQsqaUBKTNV-1" vertex="1">
          <mxGeometry x="311" y="2789" width="30" height="30" as="geometry" />
        </mxCell>
        <mxCell id="3wCkGZQV_pcTR9l7CTKe-232" value="will hold all the transactions&#39; information in the database&amp;nbsp;" style="text;html=1;align=center;verticalAlign=middle;whiteSpace=wrap;rounded=0;fillColor=#f5f5f5;fontColor=#333333;strokeColor=#666666;" parent="WIyWlLk6GJQsqaUBKTNV-1" vertex="1">
          <mxGeometry x="78" y="3120" width="140" height="60" as="geometry" />
        </mxCell>
        <mxCell id="3wCkGZQV_pcTR9l7CTKe-233" value="regular \ bid \ general discounts" style="text;html=1;align=center;verticalAlign=middle;whiteSpace=wrap;rounded=0;fillColor=#f5f5f5;fontColor=#333333;strokeColor=#666666;" parent="WIyWlLk6GJQsqaUBKTNV-1" vertex="1">
          <mxGeometry x="950" y="2966" width="130" height="34" as="geometry" />
        </mxCell>
        <mxCell id="3wCkGZQV_pcTR9l7CTKe-234" style="edgeStyle=orthogonalEdgeStyle;rounded=0;orthogonalLoop=1;jettySize=auto;html=1;exitX=0;exitY=0.5;exitDx=0;exitDy=0;entryX=0.624;entryY=0.01;entryDx=0;entryDy=0;entryPerimeter=0;fontSize=8;" parent="WIyWlLk6GJQsqaUBKTNV-1" target="3wCkGZQV_pcTR9l7CTKe-235" edge="1">
          <mxGeometry relative="1" as="geometry">
            <mxPoint x="1227" y="2783" as="sourcePoint" />
          </mxGeometry>
        </mxCell>
        <mxCell id="3wCkGZQV_pcTR9l7CTKe-235" value="Policy" style="swimlane;fontStyle=1;align=center;verticalAlign=top;childLayout=stackLayout;horizontal=1;startSize=26;horizontalStack=0;resizeParent=1;resizeLast=0;collapsible=1;marginBottom=0;rounded=0;shadow=0;strokeWidth=1;" parent="WIyWlLk6GJQsqaUBKTNV-1" vertex="1">
          <mxGeometry x="1037" y="2817" width="160" height="30" as="geometry">
            <mxRectangle x="130" y="380" width="160" height="26" as="alternateBounds" />
          </mxGeometry>
        </mxCell>
        <mxCell id="3wCkGZQV_pcTR9l7CTKe-236" style="edgeStyle=orthogonalEdgeStyle;rounded=0;orthogonalLoop=1;jettySize=auto;html=1;exitX=0.5;exitY=0;exitDx=0;exitDy=0;strokeWidth=1;startArrow=none;startFill=0;endArrow=none;endFill=0;" parent="WIyWlLk6GJQsqaUBKTNV-1" edge="1">
          <mxGeometry relative="1" as="geometry">
            <mxPoint x="1014" y="2925" as="sourcePoint" />
            <mxPoint x="1014" y="2885" as="targetPoint" />
            <Array as="points">
              <mxPoint x="1014" y="2895" />
              <mxPoint x="1014" y="2895" />
            </Array>
          </mxGeometry>
        </mxCell>
        <mxCell id="3wCkGZQV_pcTR9l7CTKe-237" style="edgeStyle=orthogonalEdgeStyle;rounded=0;orthogonalLoop=1;jettySize=auto;html=1;exitX=0.5;exitY=0;exitDx=0;exitDy=0;strokeWidth=1;startArrow=none;startFill=0;endArrow=none;endFill=0;" parent="WIyWlLk6GJQsqaUBKTNV-1" edge="1">
          <mxGeometry relative="1" as="geometry">
            <mxPoint x="1214" y="2885" as="targetPoint" />
            <mxPoint x="1214" y="2925" as="sourcePoint" />
          </mxGeometry>
        </mxCell>
        <mxCell id="3wCkGZQV_pcTR9l7CTKe-238" value="" style="triangle;whiteSpace=wrap;html=1;rotation=-90;" parent="WIyWlLk6GJQsqaUBKTNV-1" vertex="1">
          <mxGeometry x="1107" y="2865" width="20" height="20" as="geometry" />
        </mxCell>
        <mxCell id="3wCkGZQV_pcTR9l7CTKe-239" value="" style="endArrow=none;html=1;rounded=0;strokeWidth=1;entryX=0.497;entryY=0.996;entryDx=0;entryDy=0;entryPerimeter=0;exitX=1;exitY=0.5;exitDx=0;exitDy=0;" parent="WIyWlLk6GJQsqaUBKTNV-1" source="3wCkGZQV_pcTR9l7CTKe-238" edge="1">
          <mxGeometry width="50" height="50" relative="1" as="geometry">
            <mxPoint x="1117" y="2867" as="sourcePoint" />
            <mxPoint x="1117" y="2847" as="targetPoint" />
          </mxGeometry>
        </mxCell>
        <mxCell id="3wCkGZQV_pcTR9l7CTKe-240" value="" style="endArrow=none;html=1;rounded=0;strokeWidth=1;" parent="WIyWlLk6GJQsqaUBKTNV-1" edge="1">
          <mxGeometry width="50" height="50" relative="1" as="geometry">
            <mxPoint x="1014" y="2885" as="sourcePoint" />
            <mxPoint x="1214" y="2885" as="targetPoint" />
          </mxGeometry>
        </mxCell>
        <mxCell id="3wCkGZQV_pcTR9l7CTKe-241" value="implements" style="text;html=1;align=center;verticalAlign=middle;resizable=0;points=[];autosize=1;strokeColor=none;fillColor=none;" parent="WIyWlLk6GJQsqaUBKTNV-1" vertex="1">
          <mxGeometry x="1120" y="2855" width="80" height="30" as="geometry" />
        </mxCell>
        <mxCell id="3wCkGZQV_pcTR9l7CTKe-242" value="PurhcasePolicy" style="swimlane;fontStyle=1;align=center;verticalAlign=top;childLayout=stackLayout;horizontal=1;startSize=26;horizontalStack=0;resizeParent=1;resizeLast=0;collapsible=1;marginBottom=0;rounded=0;shadow=0;strokeWidth=1;" parent="WIyWlLk6GJQsqaUBKTNV-1" vertex="1">
          <mxGeometry x="924" y="2923" width="160" height="34" as="geometry">
            <mxRectangle x="130" y="380" width="160" height="26" as="alternateBounds" />
          </mxGeometry>
        </mxCell>
        <mxCell id="3wCkGZQV_pcTR9l7CTKe-243" value="" style="line;html=1;strokeWidth=1;align=left;verticalAlign=middle;spacingTop=-1;spacingLeft=3;spacingRight=3;rotatable=0;labelPosition=right;points=[];portConstraint=eastwest;" parent="3wCkGZQV_pcTR9l7CTKe-242" vertex="1">
          <mxGeometry y="26" width="160" height="8" as="geometry" />
        </mxCell>
        <mxCell id="3wCkGZQV_pcTR9l7CTKe-244" value="DiscountPolicy" style="swimlane;fontStyle=1;align=center;verticalAlign=top;childLayout=stackLayout;horizontal=1;startSize=26;horizontalStack=0;resizeParent=1;resizeLast=0;collapsible=1;marginBottom=0;rounded=0;shadow=0;strokeWidth=1;" parent="WIyWlLk6GJQsqaUBKTNV-1" vertex="1">
          <mxGeometry x="1134" y="2923" width="160" height="34" as="geometry">
            <mxRectangle x="130" y="380" width="160" height="26" as="alternateBounds" />
          </mxGeometry>
        </mxCell>
        <mxCell id="3wCkGZQV_pcTR9l7CTKe-245" value="" style="line;html=1;strokeWidth=1;align=left;verticalAlign=middle;spacingTop=-1;spacingLeft=3;spacingRight=3;rotatable=0;labelPosition=right;points=[];portConstraint=eastwest;" parent="3wCkGZQV_pcTR9l7CTKe-244" vertex="1">
          <mxGeometry y="26" width="160" height="8" as="geometry" />
        </mxCell>
        <mxCell id="3wCkGZQV_pcTR9l7CTKe-246" value="discounts" style="text;html=1;align=center;verticalAlign=middle;whiteSpace=wrap;rounded=0;fillColor=#f5f5f5;fontColor=#333333;strokeColor=#666666;" parent="WIyWlLk6GJQsqaUBKTNV-1" vertex="1">
          <mxGeometry x="1175" y="2970" width="90" height="20" as="geometry" />
        </mxCell>
        <mxCell id="3wCkGZQV_pcTR9l7CTKe-247" value="1" style="text;html=1;align=center;verticalAlign=middle;resizable=0;points=[];autosize=1;strokeColor=none;fillColor=none;" parent="WIyWlLk6GJQsqaUBKTNV-1" vertex="1">
          <mxGeometry x="753" y="2620" width="30" height="30" as="geometry" />
        </mxCell>
        <mxCell id="3wCkGZQV_pcTR9l7CTKe-248" value="1" style="text;html=1;align=center;verticalAlign=middle;resizable=0;points=[];autosize=1;strokeColor=none;fillColor=none;" parent="WIyWlLk6GJQsqaUBKTNV-1" vertex="1">
          <mxGeometry x="550" y="2660" width="30" height="30" as="geometry" />
        </mxCell>
        <mxCell id="3wCkGZQV_pcTR9l7CTKe-249" value="1" style="text;html=1;align=center;verticalAlign=middle;resizable=0;points=[];autosize=1;strokeColor=none;fillColor=none;" parent="WIyWlLk6GJQsqaUBKTNV-1" vertex="1">
          <mxGeometry x="790" y="2640" width="30" height="30" as="geometry" />
        </mxCell>
        <mxCell id="3wCkGZQV_pcTR9l7CTKe-250" value="1" style="text;html=1;align=center;verticalAlign=middle;resizable=0;points=[];autosize=1;strokeColor=none;fillColor=none;" parent="WIyWlLk6GJQsqaUBKTNV-1" vertex="1">
          <mxGeometry x="856.5" y="2613" width="30" height="30" as="geometry" />
        </mxCell>
        <mxCell id="3wCkGZQV_pcTR9l7CTKe-251" value="0...n" style="text;html=1;align=center;verticalAlign=middle;resizable=0;points=[];autosize=1;strokeColor=none;fillColor=none;" parent="WIyWlLk6GJQsqaUBKTNV-1" vertex="1">
          <mxGeometry x="703" y="3188" width="50" height="30" as="geometry" />
        </mxCell>
        <mxCell id="3wCkGZQV_pcTR9l7CTKe-252" value="1" style="text;html=1;align=center;verticalAlign=middle;resizable=0;points=[];autosize=1;strokeColor=none;fillColor=none;" parent="WIyWlLk6GJQsqaUBKTNV-1" vertex="1">
          <mxGeometry x="1227" y="2650" width="30" height="30" as="geometry" />
        </mxCell>
        <mxCell id="3wCkGZQV_pcTR9l7CTKe-253" value="1" style="text;html=1;align=center;verticalAlign=middle;resizable=0;points=[];autosize=1;strokeColor=none;fillColor=none;" parent="WIyWlLk6GJQsqaUBKTNV-1" vertex="1">
          <mxGeometry x="1195.5" y="2725" width="30" height="30" as="geometry" />
        </mxCell>
        <mxCell id="3wCkGZQV_pcTR9l7CTKe-254" value="0...n" style="text;html=1;align=center;verticalAlign=middle;resizable=0;points=[];autosize=1;strokeColor=none;fillColor=none;" parent="WIyWlLk6GJQsqaUBKTNV-1" vertex="1">
          <mxGeometry x="1300" y="2740" width="50" height="30" as="geometry" />
        </mxCell>
        <mxCell id="3wCkGZQV_pcTR9l7CTKe-255" value="0...n" style="text;html=1;align=center;verticalAlign=middle;resizable=0;points=[];autosize=1;strokeColor=none;fillColor=none;" parent="WIyWlLk6GJQsqaUBKTNV-1" vertex="1">
          <mxGeometry x="170" y="2771" width="50" height="30" as="geometry" />
        </mxCell>
        <mxCell id="3wCkGZQV_pcTR9l7CTKe-256" value="0..n" style="text;html=1;align=center;verticalAlign=middle;resizable=0;points=[];autosize=1;strokeColor=none;fillColor=none;" parent="WIyWlLk6GJQsqaUBKTNV-1" vertex="1">
          <mxGeometry x="1570" y="2860" width="40" height="30" as="geometry" />
        </mxCell>
        <mxCell id="3wCkGZQV_pcTR9l7CTKe-257" value="0..n" style="text;html=1;align=center;verticalAlign=middle;resizable=0;points=[];autosize=1;strokeColor=none;fillColor=none;" parent="WIyWlLk6GJQsqaUBKTNV-1" vertex="1">
          <mxGeometry x="1480" y="2785" width="40" height="30" as="geometry" />
        </mxCell>
        <mxCell id="3wCkGZQV_pcTR9l7CTKe-258" value="1" style="text;html=1;align=center;verticalAlign=middle;resizable=0;points=[];autosize=1;strokeColor=none;fillColor=none;" parent="WIyWlLk6GJQsqaUBKTNV-1" vertex="1">
          <mxGeometry x="641" y="2942" width="30" height="30" as="geometry" />
        </mxCell>
        <mxCell id="3wCkGZQV_pcTR9l7CTKe-259" value="0...n" style="text;html=1;align=center;verticalAlign=middle;resizable=0;points=[];autosize=1;strokeColor=none;fillColor=none;" parent="WIyWlLk6GJQsqaUBKTNV-1" vertex="1">
          <mxGeometry x="1084" y="2785" width="50" height="30" as="geometry" />
        </mxCell>
        <mxCell id="3wCkGZQV_pcTR9l7CTKe-260" value="1" style="text;html=1;align=center;verticalAlign=middle;resizable=0;points=[];autosize=1;strokeColor=none;fillColor=none;" parent="WIyWlLk6GJQsqaUBKTNV-1" vertex="1">
          <mxGeometry x="1205" y="2785" width="30" height="30" as="geometry" />
        </mxCell>
        <mxCell id="3wCkGZQV_pcTR9l7CTKe-263" value="1" style="text;html=1;align=center;verticalAlign=middle;resizable=0;points=[];autosize=1;strokeColor=none;fillColor=none;" parent="WIyWlLk6GJQsqaUBKTNV-1" vertex="1">
          <mxGeometry x="581" y="2740" width="30" height="30" as="geometry" />
        </mxCell>
        <mxCell id="3wCkGZQV_pcTR9l7CTKe-274" value="&lt;b&gt;&lt;font style=&quot;font-size: 20px;&quot;&gt;UserManagment&lt;/font&gt;&lt;/b&gt;" style="text;html=1;strokeColor=none;fillColor=none;align=center;verticalAlign=middle;whiteSpace=wrap;rounded=0;" parent="WIyWlLk6GJQsqaUBKTNV-1" vertex="1">
          <mxGeometry x="30" y="2660" width="162" height="30" as="geometry" />
        </mxCell>
        <mxCell id="3wCkGZQV_pcTR9l7CTKe-275" value="&lt;b&gt;&lt;font style=&quot;font-size: 20px;&quot;&gt;StoreManagment&lt;/font&gt;&lt;/b&gt;" style="text;html=1;strokeColor=none;fillColor=none;align=center;verticalAlign=middle;whiteSpace=wrap;rounded=0;" parent="WIyWlLk6GJQsqaUBKTNV-1" vertex="1">
          <mxGeometry x="918" y="2663.5" width="162" height="30" as="geometry" />
        </mxCell>
        <mxCell id="3wCkGZQV_pcTR9l7CTKe-276" value="&lt;b&gt;&lt;font style=&quot;font-size: 20px;&quot;&gt;ExternalManagment&lt;/font&gt;&lt;/b&gt;" style="text;html=1;strokeColor=none;fillColor=none;align=center;verticalAlign=middle;whiteSpace=wrap;rounded=0;" parent="WIyWlLk6GJQsqaUBKTNV-1" vertex="1">
          <mxGeometry x="611" y="3090" width="162" height="30" as="geometry" />
        </mxCell>
        <mxCell id="3wCkGZQV_pcTR9l7CTKe-277" value="&lt;b&gt;&lt;font style=&quot;font-size: 20px;&quot;&gt;Domain&lt;/font&gt;&lt;/b&gt;" style="text;html=1;strokeColor=none;fillColor=none;align=center;verticalAlign=middle;whiteSpace=wrap;rounded=0;" parent="WIyWlLk6GJQsqaUBKTNV-1" vertex="1">
          <mxGeometry x="-14" y="2613" width="162" height="30" as="geometry" />
        </mxCell>
        <mxCell id="3wCkGZQV_pcTR9l7CTKe-278" value="&lt;b&gt;&lt;font style=&quot;font-size: 20px;&quot;&gt;Service&lt;/font&gt;&lt;/b&gt;" style="text;html=1;strokeColor=none;fillColor=none;align=center;verticalAlign=middle;whiteSpace=wrap;rounded=0;" parent="WIyWlLk6GJQsqaUBKTNV-1" vertex="1">
          <mxGeometry x="-14" y="2460" width="162" height="30" as="geometry" />
        </mxCell>
        <mxCell id="8Gco-aPwfKXWgK4UTAxF-0" value="" style="rounded=0;whiteSpace=wrap;html=1;fillColor=#f5f5f5;fontColor=#333333;strokeColor=#666666;" vertex="1" parent="WIyWlLk6GJQsqaUBKTNV-1">
          <mxGeometry x="3" y="3570" width="1640" height="142" as="geometry" />
        </mxCell>
        <mxCell id="8Gco-aPwfKXWgK4UTAxF-1" value="" style="rounded=0;whiteSpace=wrap;html=1;fillColor=#f5f5f5;fontColor=#333333;strokeColor=#666666;" vertex="1" parent="WIyWlLk6GJQsqaUBKTNV-1">
          <mxGeometry x="-1710" y="3830" width="1640" height="740" as="geometry" />
        </mxCell>
        <mxCell id="8Gco-aPwfKXWgK4UTAxF-2" value="" style="rounded=0;whiteSpace=wrap;html=1;fillColor=#d5e8d4;strokeColor=#82b366;" vertex="1" parent="WIyWlLk6GJQsqaUBKTNV-1">
          <mxGeometry x="1168.5" y="4370" width="480" height="260" as="geometry" />
        </mxCell>
        <mxCell id="8Gco-aPwfKXWgK4UTAxF-3" value="" style="rounded=0;whiteSpace=wrap;html=1;fillColor=#fff2cc;strokeColor=#d6b656;" vertex="1" parent="WIyWlLk6GJQsqaUBKTNV-1">
          <mxGeometry x="-770" y="4242" width="740" height="420" as="geometry" />
        </mxCell>
        <mxCell id="8Gco-aPwfKXWgK4UTAxF-4" value="" style="rounded=0;whiteSpace=wrap;html=1;fillColor=#dae8fc;strokeColor=#6c8ebf;" vertex="1" parent="WIyWlLk6GJQsqaUBKTNV-1">
          <mxGeometry x="-790" y="3792" width="740" height="410" as="geometry" />
        </mxCell>
        <mxCell id="8Gco-aPwfKXWgK4UTAxF-5" style="edgeStyle=orthogonalEdgeStyle;rounded=0;orthogonalLoop=1;jettySize=auto;html=1;exitX=0.5;exitY=0;exitDx=0;exitDy=0;strokeWidth=1;startArrow=none;startFill=0;endArrow=none;endFill=0;" edge="1" parent="WIyWlLk6GJQsqaUBKTNV-1">
          <mxGeometry relative="1" as="geometry">
            <mxPoint x="93" y="3930" as="sourcePoint" />
            <mxPoint x="93" y="3890" as="targetPoint" />
            <Array as="points">
              <mxPoint x="93" y="3900" />
              <mxPoint x="93" y="3900" />
            </Array>
          </mxGeometry>
        </mxCell>
        <mxCell id="8Gco-aPwfKXWgK4UTAxF-6" style="edgeStyle=orthogonalEdgeStyle;rounded=0;orthogonalLoop=1;jettySize=auto;html=1;exitX=0.5;exitY=0;exitDx=0;exitDy=0;strokeWidth=1;startArrow=none;startFill=0;endArrow=none;endFill=0;" edge="1" parent="WIyWlLk6GJQsqaUBKTNV-1">
          <mxGeometry relative="1" as="geometry">
            <mxPoint x="293" y="3890" as="targetPoint" />
            <mxPoint x="293" y="3930" as="sourcePoint" />
          </mxGeometry>
        </mxCell>
        <mxCell id="8Gco-aPwfKXWgK4UTAxF-7" value="" style="triangle;whiteSpace=wrap;html=1;rotation=-90;" vertex="1" parent="WIyWlLk6GJQsqaUBKTNV-1">
          <mxGeometry x="186" y="3870" width="20" height="20" as="geometry" />
        </mxCell>
        <mxCell id="8Gco-aPwfKXWgK4UTAxF-8" value="" style="endArrow=none;html=1;rounded=0;strokeWidth=1;entryX=0.497;entryY=0.996;entryDx=0;entryDy=0;entryPerimeter=0;exitX=1;exitY=0.5;exitDx=0;exitDy=0;" edge="1" parent="WIyWlLk6GJQsqaUBKTNV-1" source="8Gco-aPwfKXWgK4UTAxF-7">
          <mxGeometry width="50" height="50" relative="1" as="geometry">
            <mxPoint x="196" y="3872" as="sourcePoint" />
            <mxPoint x="196" y="3852" as="targetPoint" />
          </mxGeometry>
        </mxCell>
        <mxCell id="8Gco-aPwfKXWgK4UTAxF-9" value="" style="endArrow=none;html=1;rounded=0;strokeWidth=1;" edge="1" parent="WIyWlLk6GJQsqaUBKTNV-1">
          <mxGeometry width="50" height="50" relative="1" as="geometry">
            <mxPoint x="93" y="3890" as="sourcePoint" />
            <mxPoint x="293" y="3890" as="targetPoint" />
          </mxGeometry>
        </mxCell>
        <mxCell id="8Gco-aPwfKXWgK4UTAxF-10" value="implements" style="text;html=1;align=center;verticalAlign=middle;resizable=0;points=[];autosize=1;strokeColor=none;fillColor=none;" vertex="1" parent="WIyWlLk6GJQsqaUBKTNV-1">
          <mxGeometry x="199" y="3860" width="80" height="30" as="geometry" />
        </mxCell>
        <mxCell id="8Gco-aPwfKXWgK4UTAxF-11" value="Guest" style="swimlane;fontStyle=1;align=center;verticalAlign=top;childLayout=stackLayout;horizontal=1;startSize=26;horizontalStack=0;resizeParent=1;resizeLast=0;collapsible=1;marginBottom=0;rounded=0;shadow=0;strokeWidth=1;" vertex="1" parent="WIyWlLk6GJQsqaUBKTNV-1">
          <mxGeometry x="3" y="3928" width="160" height="34" as="geometry">
            <mxRectangle x="130" y="380" width="160" height="26" as="alternateBounds" />
          </mxGeometry>
        </mxCell>
        <mxCell id="8Gco-aPwfKXWgK4UTAxF-12" value="" style="line;html=1;strokeWidth=1;align=left;verticalAlign=middle;spacingTop=-1;spacingLeft=3;spacingRight=3;rotatable=0;labelPosition=right;points=[];portConstraint=eastwest;" vertex="1" parent="8Gco-aPwfKXWgK4UTAxF-11">
          <mxGeometry y="26" width="160" height="8" as="geometry" />
        </mxCell>
        <mxCell id="8Gco-aPwfKXWgK4UTAxF-13" style="edgeStyle=orthogonalEdgeStyle;rounded=0;orthogonalLoop=1;jettySize=auto;html=1;exitX=1;exitY=0.5;exitDx=0;exitDy=0;entryX=0.423;entryY=-0.067;entryDx=0;entryDy=0;entryPerimeter=0;" edge="1" parent="WIyWlLk6GJQsqaUBKTNV-1" source="8Gco-aPwfKXWgK4UTAxF-14" target="8Gco-aPwfKXWgK4UTAxF-16">
          <mxGeometry relative="1" as="geometry">
            <Array as="points">
              <mxPoint x="380" y="3837" />
              <mxPoint x="380" y="3910" />
              <mxPoint x="470" y="3910" />
              <mxPoint x="470" y="3940" />
              <mxPoint x="467" y="3940" />
              <mxPoint x="467" y="3954" />
            </Array>
            <mxPoint x="430" y="3970" as="targetPoint" />
          </mxGeometry>
        </mxCell>
        <mxCell id="8Gco-aPwfKXWgK4UTAxF-14" value="User" style="swimlane;fontStyle=1;align=center;verticalAlign=top;childLayout=stackLayout;horizontal=1;startSize=26;horizontalStack=0;resizeParent=1;resizeLast=0;collapsible=1;marginBottom=0;rounded=0;shadow=0;strokeWidth=1;" vertex="1" parent="WIyWlLk6GJQsqaUBKTNV-1">
          <mxGeometry x="120" y="3822" width="160" height="30" as="geometry">
            <mxRectangle x="130" y="380" width="160" height="26" as="alternateBounds" />
          </mxGeometry>
        </mxCell>
        <mxCell id="8Gco-aPwfKXWgK4UTAxF-15" style="edgeStyle=orthogonalEdgeStyle;rounded=0;orthogonalLoop=1;jettySize=auto;html=1;exitX=0.5;exitY=1;exitDx=0;exitDy=0;" edge="1" parent="WIyWlLk6GJQsqaUBKTNV-1" source="8Gco-aPwfKXWgK4UTAxF-16">
          <mxGeometry relative="1" as="geometry">
            <Array as="points">
              <mxPoint x="467" y="4055" />
              <mxPoint x="467" y="4055" />
            </Array>
            <mxPoint x="467" y="4065" as="targetPoint" />
          </mxGeometry>
        </mxCell>
        <mxCell id="8Gco-aPwfKXWgK4UTAxF-16" value="Cart" style="swimlane;fontStyle=1;align=center;verticalAlign=top;childLayout=stackLayout;horizontal=1;startSize=26;horizontalStack=0;resizeParent=1;resizeLast=0;collapsible=1;marginBottom=0;rounded=0;shadow=0;strokeWidth=1;" vertex="1" parent="WIyWlLk6GJQsqaUBKTNV-1">
          <mxGeometry x="387" y="3956" width="160" height="30" as="geometry">
            <mxRectangle x="130" y="380" width="160" height="26" as="alternateBounds" />
          </mxGeometry>
        </mxCell>
        <mxCell id="8Gco-aPwfKXWgK4UTAxF-17" value="Member" style="swimlane;fontStyle=1;align=center;verticalAlign=top;childLayout=stackLayout;horizontal=1;startSize=26;horizontalStack=0;resizeParent=1;resizeLast=0;collapsible=1;marginBottom=0;rounded=0;shadow=0;strokeWidth=1;" vertex="1" parent="WIyWlLk6GJQsqaUBKTNV-1">
          <mxGeometry x="213" y="3928" width="160" height="34" as="geometry">
            <mxRectangle x="130" y="380" width="160" height="26" as="alternateBounds" />
          </mxGeometry>
        </mxCell>
        <mxCell id="8Gco-aPwfKXWgK4UTAxF-18" value="" style="line;html=1;strokeWidth=1;align=left;verticalAlign=middle;spacingTop=-1;spacingLeft=3;spacingRight=3;rotatable=0;labelPosition=right;points=[];portConstraint=eastwest;" vertex="1" parent="8Gco-aPwfKXWgK4UTAxF-17">
          <mxGeometry y="26" width="160" height="8" as="geometry" />
        </mxCell>
        <mxCell id="8Gco-aPwfKXWgK4UTAxF-20" value="Basket" style="swimlane;fontStyle=1;align=center;verticalAlign=top;childLayout=stackLayout;horizontal=1;startSize=26;horizontalStack=0;resizeParent=1;resizeLast=0;collapsible=1;marginBottom=0;rounded=0;shadow=0;strokeWidth=1;" vertex="1" parent="WIyWlLk6GJQsqaUBKTNV-1">
          <mxGeometry x="410" y="4067" width="160" height="30" as="geometry">
            <mxRectangle x="130" y="380" width="160" height="26" as="alternateBounds" />
          </mxGeometry>
        </mxCell>
        <mxCell id="8Gco-aPwfKXWgK4UTAxF-21" value="0..n" style="text;html=1;align=center;verticalAlign=middle;resizable=0;points=[];autosize=1;strokeColor=none;fillColor=none;" vertex="1" parent="WIyWlLk6GJQsqaUBKTNV-1">
          <mxGeometry x="471" y="4037" width="40" height="30" as="geometry" />
        </mxCell>
        <mxCell id="8Gco-aPwfKXWgK4UTAxF-22" style="edgeStyle=orthogonalEdgeStyle;rounded=0;orthogonalLoop=1;jettySize=auto;html=1;exitX=0.5;exitY=1;exitDx=0;exitDy=0;" edge="1" parent="WIyWlLk6GJQsqaUBKTNV-1" source="8Gco-aPwfKXWgK4UTAxF-23" target="8Gco-aPwfKXWgK4UTAxF-24">
          <mxGeometry relative="1" as="geometry">
            <Array as="points">
              <mxPoint x="1036.5" y="4083" />
              <mxPoint x="1236.5" y="4083" />
            </Array>
          </mxGeometry>
        </mxCell>
        <mxCell id="8Gco-aPwfKXWgK4UTAxF-23" value="Store" style="swimlane;fontStyle=1;align=center;verticalAlign=top;childLayout=stackLayout;horizontal=1;startSize=26;horizontalStack=0;resizeParent=1;resizeLast=0;collapsible=1;marginBottom=0;rounded=0;shadow=0;strokeWidth=1;" vertex="1" parent="WIyWlLk6GJQsqaUBKTNV-1">
          <mxGeometry x="956.5" y="4033" width="160" height="30" as="geometry">
            <mxRectangle x="130" y="380" width="160" height="26" as="alternateBounds" />
          </mxGeometry>
        </mxCell>
        <mxCell id="8Gco-aPwfKXWgK4UTAxF-24" value="Product" style="swimlane;fontStyle=1;align=center;verticalAlign=top;childLayout=stackLayout;horizontal=1;startSize=26;horizontalStack=0;resizeParent=1;resizeLast=0;collapsible=1;marginBottom=0;rounded=0;shadow=0;strokeWidth=1;" vertex="1" parent="WIyWlLk6GJQsqaUBKTNV-1">
          <mxGeometry x="1156.5" y="4094" width="160" height="30" as="geometry">
            <mxRectangle x="130" y="380" width="160" height="26" as="alternateBounds" />
          </mxGeometry>
        </mxCell>
        <mxCell id="8Gco-aPwfKXWgK4UTAxF-25" value="1" style="text;html=1;align=center;verticalAlign=middle;resizable=0;points=[];autosize=1;strokeColor=none;fillColor=none;" vertex="1" parent="WIyWlLk6GJQsqaUBKTNV-1">
          <mxGeometry x="1006.5" y="4063" width="30" height="30" as="geometry" />
        </mxCell>
        <mxCell id="8Gco-aPwfKXWgK4UTAxF-27" style="edgeStyle=orthogonalEdgeStyle;rounded=0;orthogonalLoop=1;jettySize=auto;html=1;exitX=0.25;exitY=1;exitDx=0;exitDy=0;entryX=0.5;entryY=0;entryDx=0;entryDy=0;dashed=1;fillColor=#f8cecc;strokeColor=#b85450;" edge="1" parent="WIyWlLk6GJQsqaUBKTNV-1" source="8Gco-aPwfKXWgK4UTAxF-29" target="8Gco-aPwfKXWgK4UTAxF-32">
          <mxGeometry relative="1" as="geometry" />
        </mxCell>
        <mxCell id="8Gco-aPwfKXWgK4UTAxF-28" style="edgeStyle=orthogonalEdgeStyle;rounded=0;orthogonalLoop=1;jettySize=auto;html=1;fontSize=8;entryX=0.366;entryY=0.039;entryDx=0;entryDy=0;dashed=1;entryPerimeter=0;fillColor=#f8cecc;strokeColor=#b85450;" edge="1" parent="WIyWlLk6GJQsqaUBKTNV-1" target="8Gco-aPwfKXWgK4UTAxF-37">
          <mxGeometry relative="1" as="geometry">
            <mxPoint x="1007" y="3747" as="targetPoint" />
            <mxPoint x="870" y="3672" as="sourcePoint" />
            <Array as="points">
              <mxPoint x="870" y="3672" />
              <mxPoint x="870" y="3770" />
              <mxPoint x="1600" y="3770" />
              <mxPoint x="1600" y="4272" />
              <mxPoint x="1398" y="4272" />
            </Array>
          </mxGeometry>
        </mxCell>
        <mxCell id="8Gco-aPwfKXWgK4UTAxF-29" value="Service" style="swimlane;fontStyle=1;align=center;verticalAlign=top;childLayout=stackLayout;horizontal=1;startSize=26;horizontalStack=0;resizeParent=1;resizeLast=0;collapsible=1;marginBottom=0;rounded=0;shadow=0;strokeWidth=1;" vertex="1" parent="WIyWlLk6GJQsqaUBKTNV-1">
          <mxGeometry x="730" y="3642" width="160" height="30" as="geometry">
            <mxRectangle x="130" y="380" width="160" height="26" as="alternateBounds" />
          </mxGeometry>
        </mxCell>
        <mxCell id="8Gco-aPwfKXWgK4UTAxF-30" style="edgeStyle=orthogonalEdgeStyle;rounded=0;orthogonalLoop=1;jettySize=auto;html=1;" edge="1" parent="WIyWlLk6GJQsqaUBKTNV-1">
          <mxGeometry relative="1" as="geometry">
            <mxPoint x="620" y="3860" as="sourcePoint" />
            <Array as="points">
              <mxPoint x="620" y="3872" />
              <mxPoint x="991" y="3872" />
            </Array>
            <mxPoint x="991" y="4030" as="targetPoint" />
          </mxGeometry>
        </mxCell>
        <mxCell id="8Gco-aPwfKXWgK4UTAxF-31" style="edgeStyle=orthogonalEdgeStyle;rounded=0;orthogonalLoop=1;jettySize=auto;html=1;exitX=0.5;exitY=1;exitDx=0;exitDy=0;entryX=0.433;entryY=0.129;entryDx=0;entryDy=0;entryPerimeter=0;" edge="1" parent="WIyWlLk6GJQsqaUBKTNV-1" source="8Gco-aPwfKXWgK4UTAxF-32" target="8Gco-aPwfKXWgK4UTAxF-14">
          <mxGeometry relative="1" as="geometry" />
        </mxCell>
        <mxCell id="8Gco-aPwfKXWgK4UTAxF-32" value="Facade" style="swimlane;fontStyle=1;align=center;verticalAlign=top;childLayout=stackLayout;horizontal=1;startSize=30;horizontalStack=0;resizeParent=1;resizeLast=0;collapsible=1;marginBottom=0;rounded=0;shadow=0;strokeWidth=1;" vertex="1" parent="WIyWlLk6GJQsqaUBKTNV-1">
          <mxGeometry x="499" y="3822" width="160" height="40" as="geometry">
            <mxRectangle x="130" y="380" width="160" height="26" as="alternateBounds" />
          </mxGeometry>
        </mxCell>
        <mxCell id="8Gco-aPwfKXWgK4UTAxF-33" value="Id&lt;br&gt;Accesess" style="text;html=1;align=center;verticalAlign=middle;whiteSpace=wrap;rounded=0;fillColor=#f5f5f5;fontColor=#333333;strokeColor=#666666;" vertex="1" parent="WIyWlLk6GJQsqaUBKTNV-1">
          <mxGeometry x="253" y="3972" width="90" height="60" as="geometry" />
        </mxCell>
        <mxCell id="8Gco-aPwfKXWgK4UTAxF-34" value="Properties&lt;br&gt;Policies&lt;br&gt;quantity in store" style="text;html=1;align=center;verticalAlign=middle;whiteSpace=wrap;rounded=0;fillColor=#f5f5f5;fontColor=#333333;strokeColor=#666666;" vertex="1" parent="WIyWlLk6GJQsqaUBKTNV-1">
          <mxGeometry x="1264.5" y="4019" width="90" height="60" as="geometry" />
        </mxCell>
        <mxCell id="8Gco-aPwfKXWgK4UTAxF-35" value="Id &amp;amp; empID&lt;br&gt;Inventory&lt;br&gt;policies &amp;amp; rules&lt;br&gt;dict: item-quantity&lt;br&gt;active\inactive&lt;br&gt;Managers,Admin, Sellers" style="text;html=1;align=center;verticalAlign=middle;whiteSpace=wrap;rounded=0;fillColor=#f5f5f5;fontColor=#333333;strokeColor=#666666;" vertex="1" parent="WIyWlLk6GJQsqaUBKTNV-1">
          <mxGeometry x="1069.5" y="3923" width="140" height="100" as="geometry" />
        </mxCell>
        <mxCell id="8Gco-aPwfKXWgK4UTAxF-36" value="ID:&lt;br&gt;storeID &amp;amp; productID" style="text;html=1;align=center;verticalAlign=middle;whiteSpace=wrap;rounded=0;fillColor=#f5f5f5;fontColor=#333333;strokeColor=#666666;" vertex="1" parent="WIyWlLk6GJQsqaUBKTNV-1">
          <mxGeometry x="1191.5" y="4133" width="90" height="60" as="geometry" />
        </mxCell>
        <mxCell id="8Gco-aPwfKXWgK4UTAxF-92" value="" style="edgeStyle=orthogonalEdgeStyle;rounded=0;orthogonalLoop=1;jettySize=auto;html=1;" edge="1" parent="WIyWlLk6GJQsqaUBKTNV-1" source="8Gco-aPwfKXWgK4UTAxF-37" target="8Gco-aPwfKXWgK4UTAxF-48">
          <mxGeometry relative="1" as="geometry" />
        </mxCell>
        <mxCell id="8Gco-aPwfKXWgK4UTAxF-37" value="ExternalServices" style="swimlane;fontStyle=1;align=center;verticalAlign=top;childLayout=stackLayout;horizontal=1;startSize=26;horizontalStack=0;resizeParent=1;resizeLast=0;collapsible=1;marginBottom=0;rounded=0;shadow=0;strokeWidth=1;" vertex="1" parent="WIyWlLk6GJQsqaUBKTNV-1">
          <mxGeometry x="1339" y="4460" width="160" height="30" as="geometry">
            <mxRectangle x="130" y="380" width="160" height="26" as="alternateBounds" />
          </mxGeometry>
        </mxCell>
        <mxCell id="8Gco-aPwfKXWgK4UTAxF-38" style="edgeStyle=orthogonalEdgeStyle;rounded=0;orthogonalLoop=1;jettySize=auto;html=1;exitX=0.5;exitY=0;exitDx=0;exitDy=0;strokeWidth=1;startArrow=none;startFill=0;endArrow=none;endFill=0;" edge="1" parent="WIyWlLk6GJQsqaUBKTNV-1">
          <mxGeometry relative="1" as="geometry">
            <mxPoint x="1354" y="4568" as="sourcePoint" />
            <mxPoint x="1354" y="4528" as="targetPoint" />
            <Array as="points">
              <mxPoint x="1354" y="4538" />
              <mxPoint x="1354" y="4538" />
            </Array>
          </mxGeometry>
        </mxCell>
        <mxCell id="8Gco-aPwfKXWgK4UTAxF-39" style="edgeStyle=orthogonalEdgeStyle;rounded=0;orthogonalLoop=1;jettySize=auto;html=1;exitX=0.5;exitY=0;exitDx=0;exitDy=0;strokeWidth=1;startArrow=none;startFill=0;endArrow=none;endFill=0;" edge="1" parent="WIyWlLk6GJQsqaUBKTNV-1">
          <mxGeometry relative="1" as="geometry">
            <mxPoint x="1554" y="4528" as="targetPoint" />
            <mxPoint x="1554" y="4568" as="sourcePoint" />
          </mxGeometry>
        </mxCell>
        <mxCell id="8Gco-aPwfKXWgK4UTAxF-40" value="" style="triangle;whiteSpace=wrap;html=1;rotation=-90;" vertex="1" parent="WIyWlLk6GJQsqaUBKTNV-1">
          <mxGeometry x="1447" y="4508" width="20" height="20" as="geometry" />
        </mxCell>
        <mxCell id="8Gco-aPwfKXWgK4UTAxF-41" value="" style="endArrow=none;html=1;rounded=0;strokeWidth=1;entryX=0.497;entryY=0.996;entryDx=0;entryDy=0;entryPerimeter=0;exitX=1;exitY=0.5;exitDx=0;exitDy=0;" edge="1" parent="WIyWlLk6GJQsqaUBKTNV-1" source="8Gco-aPwfKXWgK4UTAxF-40">
          <mxGeometry width="50" height="50" relative="1" as="geometry">
            <mxPoint x="1457" y="4510" as="sourcePoint" />
            <mxPoint x="1457" y="4490" as="targetPoint" />
          </mxGeometry>
        </mxCell>
        <mxCell id="8Gco-aPwfKXWgK4UTAxF-42" value="" style="endArrow=none;html=1;rounded=0;strokeWidth=1;" edge="1" parent="WIyWlLk6GJQsqaUBKTNV-1">
          <mxGeometry width="50" height="50" relative="1" as="geometry">
            <mxPoint x="1354" y="4528" as="sourcePoint" />
            <mxPoint x="1554" y="4528" as="targetPoint" />
          </mxGeometry>
        </mxCell>
        <mxCell id="8Gco-aPwfKXWgK4UTAxF-43" value="implements" style="text;html=1;align=center;verticalAlign=middle;resizable=0;points=[];autosize=1;strokeColor=none;fillColor=none;" vertex="1" parent="WIyWlLk6GJQsqaUBKTNV-1">
          <mxGeometry x="1460" y="4498" width="80" height="30" as="geometry" />
        </mxCell>
        <mxCell id="8Gco-aPwfKXWgK4UTAxF-44" value="Payment" style="swimlane;fontStyle=1;align=center;verticalAlign=top;childLayout=stackLayout;horizontal=1;startSize=26;horizontalStack=0;resizeParent=1;resizeLast=0;collapsible=1;marginBottom=0;rounded=0;shadow=0;strokeWidth=1;" vertex="1" parent="WIyWlLk6GJQsqaUBKTNV-1">
          <mxGeometry x="1264" y="4566" width="160" height="34" as="geometry">
            <mxRectangle x="130" y="380" width="160" height="26" as="alternateBounds" />
          </mxGeometry>
        </mxCell>
        <mxCell id="8Gco-aPwfKXWgK4UTAxF-45" value="" style="line;html=1;strokeWidth=1;align=left;verticalAlign=middle;spacingTop=-1;spacingLeft=3;spacingRight=3;rotatable=0;labelPosition=right;points=[];portConstraint=eastwest;" vertex="1" parent="8Gco-aPwfKXWgK4UTAxF-44">
          <mxGeometry y="26" width="160" height="8" as="geometry" />
        </mxCell>
        <mxCell id="8Gco-aPwfKXWgK4UTAxF-46" value="Supply" style="swimlane;fontStyle=1;align=center;verticalAlign=top;childLayout=stackLayout;horizontal=1;startSize=26;horizontalStack=0;resizeParent=1;resizeLast=0;collapsible=1;marginBottom=0;rounded=0;shadow=0;strokeWidth=1;" vertex="1" parent="WIyWlLk6GJQsqaUBKTNV-1">
          <mxGeometry x="1474" y="4566" width="160" height="34" as="geometry">
            <mxRectangle x="130" y="380" width="160" height="26" as="alternateBounds" />
          </mxGeometry>
        </mxCell>
        <mxCell id="8Gco-aPwfKXWgK4UTAxF-47" value="" style="line;html=1;strokeWidth=1;align=left;verticalAlign=middle;spacingTop=-1;spacingLeft=3;spacingRight=3;rotatable=0;labelPosition=right;points=[];portConstraint=eastwest;" vertex="1" parent="8Gco-aPwfKXWgK4UTAxF-46">
          <mxGeometry y="26" width="160" height="8" as="geometry" />
        </mxCell>
        <mxCell id="8Gco-aPwfKXWgK4UTAxF-48" value="returns approvals" style="text;html=1;align=center;verticalAlign=middle;whiteSpace=wrap;rounded=0;fillColor=#f5f5f5;fontColor=#333333;strokeColor=#666666;" vertex="1" parent="WIyWlLk6GJQsqaUBKTNV-1">
          <mxGeometry x="1429.5" y="4390" width="90" height="60" as="geometry" />
        </mxCell>
        <mxCell id="8Gco-aPwfKXWgK4UTAxF-49" value="will hold all the messages in the database with indicator on whether they were delivered or something" style="text;html=1;align=center;verticalAlign=middle;whiteSpace=wrap;rounded=0;fillColor=#f5f5f5;fontColor=#333333;strokeColor=#666666;" vertex="1" parent="WIyWlLk6GJQsqaUBKTNV-1">
          <mxGeometry x="329" y="4242" width="154" height="60" as="geometry" />
        </mxCell>
        <mxCell id="8Gco-aPwfKXWgK4UTAxF-50" value="Password&lt;br&gt;Validator" style="text;html=1;align=center;verticalAlign=middle;whiteSpace=wrap;rounded=0;fillColor=#f5f5f5;fontColor=#333333;strokeColor=#666666;" vertex="1" parent="WIyWlLk6GJQsqaUBKTNV-1">
          <mxGeometry x="400" y="3780" width="90" height="60" as="geometry" />
        </mxCell>
        <mxCell id="8Gco-aPwfKXWgK4UTAxF-51" value="There can&#39;t be more than 1 basket for each store for each user" style="text;html=1;align=center;verticalAlign=middle;whiteSpace=wrap;rounded=0;fillColor=#f5f5f5;fontColor=#333333;strokeColor=#666666;" vertex="1" parent="WIyWlLk6GJQsqaUBKTNV-1">
          <mxGeometry x="402" y="4113" width="100" height="80" as="geometry" />
        </mxCell>
        <mxCell id="8Gco-aPwfKXWgK4UTAxF-53" value="&lt;&lt;Singleton&gt;&gt;&#xa;MessageController" style="swimlane;fontStyle=1;align=center;verticalAlign=top;childLayout=stackLayout;horizontal=1;startSize=40;horizontalStack=0;resizeParent=1;resizeLast=0;collapsible=1;marginBottom=0;rounded=0;shadow=0;strokeWidth=1;" vertex="1" parent="WIyWlLk6GJQsqaUBKTNV-1">
          <mxGeometry x="329" y="4302" width="160" height="50" as="geometry">
            <mxRectangle x="130" y="380" width="160" height="26" as="alternateBounds" />
          </mxGeometry>
        </mxCell>
        <mxCell id="8Gco-aPwfKXWgK4UTAxF-54" value="&lt;&lt;Singleton&gt;&gt;&#xa;TransactionHistory" style="swimlane;fontStyle=1;align=center;verticalAlign=top;childLayout=stackLayout;horizontal=1;startSize=40;horizontalStack=0;resizeParent=1;resizeLast=0;collapsible=1;marginBottom=0;rounded=0;shadow=0;strokeWidth=1;" vertex="1" parent="WIyWlLk6GJQsqaUBKTNV-1">
          <mxGeometry x="71" y="4302" width="160" height="50" as="geometry">
            <mxRectangle x="130" y="380" width="160" height="26" as="alternateBounds" />
          </mxGeometry>
        </mxCell>
        <mxCell id="8Gco-aPwfKXWgK4UTAxF-55" value="1" style="text;html=1;align=center;verticalAlign=middle;resizable=0;points=[];autosize=1;strokeColor=none;fillColor=none;" vertex="1" parent="WIyWlLk6GJQsqaUBKTNV-1">
          <mxGeometry x="428" y="3986" width="30" height="30" as="geometry" />
        </mxCell>
        <mxCell id="8Gco-aPwfKXWgK4UTAxF-56" value="1" style="text;html=1;align=center;verticalAlign=middle;resizable=0;points=[];autosize=1;strokeColor=none;fillColor=none;" vertex="1" parent="WIyWlLk6GJQsqaUBKTNV-1">
          <mxGeometry x="431" y="3910" width="30" height="30" as="geometry" />
        </mxCell>
        <mxCell id="8Gco-aPwfKXWgK4UTAxF-57" value="1" style="text;html=1;align=center;verticalAlign=middle;resizable=0;points=[];autosize=1;strokeColor=none;fillColor=none;" vertex="1" parent="WIyWlLk6GJQsqaUBKTNV-1">
          <mxGeometry x="284" y="3810" width="30" height="30" as="geometry" />
        </mxCell>
        <mxCell id="8Gco-aPwfKXWgK4UTAxF-58" value="will hold all the transactions&#39; information in the database&amp;nbsp;" style="text;html=1;align=center;verticalAlign=middle;whiteSpace=wrap;rounded=0;fillColor=#f5f5f5;fontColor=#333333;strokeColor=#666666;" vertex="1" parent="WIyWlLk6GJQsqaUBKTNV-1">
          <mxGeometry x="71" y="4242" width="140" height="60" as="geometry" />
        </mxCell>
        <mxCell id="8Gco-aPwfKXWgK4UTAxF-59" value="regular \ bid \ general discounts" style="text;html=1;align=center;verticalAlign=middle;whiteSpace=wrap;rounded=0;fillColor=#f5f5f5;fontColor=#333333;strokeColor=#666666;" vertex="1" parent="WIyWlLk6GJQsqaUBKTNV-1">
          <mxGeometry x="679.5" y="4229" width="130" height="34" as="geometry" />
        </mxCell>
        <mxCell id="8Gco-aPwfKXWgK4UTAxF-60" style="edgeStyle=orthogonalEdgeStyle;rounded=0;orthogonalLoop=1;jettySize=auto;html=1;exitX=0;exitY=0.5;exitDx=0;exitDy=0;entryX=0.624;entryY=0.01;entryDx=0;entryDy=0;entryPerimeter=0;fontSize=8;" edge="1" parent="WIyWlLk6GJQsqaUBKTNV-1" target="8Gco-aPwfKXWgK4UTAxF-61">
          <mxGeometry relative="1" as="geometry">
            <mxPoint x="956.5" y="4046" as="sourcePoint" />
          </mxGeometry>
        </mxCell>
        <mxCell id="8Gco-aPwfKXWgK4UTAxF-61" value="Policy" style="swimlane;fontStyle=1;align=center;verticalAlign=top;childLayout=stackLayout;horizontal=1;startSize=26;horizontalStack=0;resizeParent=1;resizeLast=0;collapsible=1;marginBottom=0;rounded=0;shadow=0;strokeWidth=1;" vertex="1" parent="WIyWlLk6GJQsqaUBKTNV-1">
          <mxGeometry x="766.5" y="4080" width="160" height="30" as="geometry">
            <mxRectangle x="130" y="380" width="160" height="26" as="alternateBounds" />
          </mxGeometry>
        </mxCell>
        <mxCell id="8Gco-aPwfKXWgK4UTAxF-62" style="edgeStyle=orthogonalEdgeStyle;rounded=0;orthogonalLoop=1;jettySize=auto;html=1;exitX=0.5;exitY=0;exitDx=0;exitDy=0;strokeWidth=1;startArrow=none;startFill=0;endArrow=none;endFill=0;" edge="1" parent="WIyWlLk6GJQsqaUBKTNV-1">
          <mxGeometry relative="1" as="geometry">
            <mxPoint x="743.5" y="4188" as="sourcePoint" />
            <mxPoint x="743.5" y="4148" as="targetPoint" />
            <Array as="points">
              <mxPoint x="743.5" y="4158" />
              <mxPoint x="743.5" y="4158" />
            </Array>
          </mxGeometry>
        </mxCell>
        <mxCell id="8Gco-aPwfKXWgK4UTAxF-63" style="edgeStyle=orthogonalEdgeStyle;rounded=0;orthogonalLoop=1;jettySize=auto;html=1;exitX=0.5;exitY=0;exitDx=0;exitDy=0;strokeWidth=1;startArrow=none;startFill=0;endArrow=none;endFill=0;" edge="1" parent="WIyWlLk6GJQsqaUBKTNV-1">
          <mxGeometry relative="1" as="geometry">
            <mxPoint x="943.5" y="4148" as="targetPoint" />
            <mxPoint x="943.5" y="4188" as="sourcePoint" />
          </mxGeometry>
        </mxCell>
        <mxCell id="8Gco-aPwfKXWgK4UTAxF-64" value="" style="triangle;whiteSpace=wrap;html=1;rotation=-90;" vertex="1" parent="WIyWlLk6GJQsqaUBKTNV-1">
          <mxGeometry x="836.5" y="4128" width="20" height="20" as="geometry" />
        </mxCell>
        <mxCell id="8Gco-aPwfKXWgK4UTAxF-65" value="" style="endArrow=none;html=1;rounded=0;strokeWidth=1;entryX=0.497;entryY=0.996;entryDx=0;entryDy=0;entryPerimeter=0;exitX=1;exitY=0.5;exitDx=0;exitDy=0;" edge="1" parent="WIyWlLk6GJQsqaUBKTNV-1" source="8Gco-aPwfKXWgK4UTAxF-64">
          <mxGeometry width="50" height="50" relative="1" as="geometry">
            <mxPoint x="846.5" y="4130" as="sourcePoint" />
            <mxPoint x="846.5" y="4110" as="targetPoint" />
          </mxGeometry>
        </mxCell>
        <mxCell id="8Gco-aPwfKXWgK4UTAxF-66" value="" style="endArrow=none;html=1;rounded=0;strokeWidth=1;" edge="1" parent="WIyWlLk6GJQsqaUBKTNV-1">
          <mxGeometry width="50" height="50" relative="1" as="geometry">
            <mxPoint x="743.5" y="4148" as="sourcePoint" />
            <mxPoint x="943.5" y="4148" as="targetPoint" />
          </mxGeometry>
        </mxCell>
        <mxCell id="8Gco-aPwfKXWgK4UTAxF-67" value="implements" style="text;html=1;align=center;verticalAlign=middle;resizable=0;points=[];autosize=1;strokeColor=none;fillColor=none;" vertex="1" parent="WIyWlLk6GJQsqaUBKTNV-1">
          <mxGeometry x="849.5" y="4118" width="80" height="30" as="geometry" />
        </mxCell>
        <mxCell id="8Gco-aPwfKXWgK4UTAxF-68" value="PurhcasePolicy" style="swimlane;fontStyle=1;align=center;verticalAlign=top;childLayout=stackLayout;horizontal=1;startSize=26;horizontalStack=0;resizeParent=1;resizeLast=0;collapsible=1;marginBottom=0;rounded=0;shadow=0;strokeWidth=1;" vertex="1" parent="WIyWlLk6GJQsqaUBKTNV-1">
          <mxGeometry x="653.5" y="4186" width="160" height="34" as="geometry">
            <mxRectangle x="130" y="380" width="160" height="26" as="alternateBounds" />
          </mxGeometry>
        </mxCell>
        <mxCell id="8Gco-aPwfKXWgK4UTAxF-69" value="" style="line;html=1;strokeWidth=1;align=left;verticalAlign=middle;spacingTop=-1;spacingLeft=3;spacingRight=3;rotatable=0;labelPosition=right;points=[];portConstraint=eastwest;" vertex="1" parent="8Gco-aPwfKXWgK4UTAxF-68">
          <mxGeometry y="26" width="160" height="8" as="geometry" />
        </mxCell>
        <mxCell id="8Gco-aPwfKXWgK4UTAxF-70" value="DiscountPolicy" style="swimlane;fontStyle=1;align=center;verticalAlign=top;childLayout=stackLayout;horizontal=1;startSize=26;horizontalStack=0;resizeParent=1;resizeLast=0;collapsible=1;marginBottom=0;rounded=0;shadow=0;strokeWidth=1;" vertex="1" parent="WIyWlLk6GJQsqaUBKTNV-1">
          <mxGeometry x="863.5" y="4186" width="160" height="34" as="geometry">
            <mxRectangle x="130" y="380" width="160" height="26" as="alternateBounds" />
          </mxGeometry>
        </mxCell>
        <mxCell id="8Gco-aPwfKXWgK4UTAxF-71" value="" style="line;html=1;strokeWidth=1;align=left;verticalAlign=middle;spacingTop=-1;spacingLeft=3;spacingRight=3;rotatable=0;labelPosition=right;points=[];portConstraint=eastwest;" vertex="1" parent="8Gco-aPwfKXWgK4UTAxF-70">
          <mxGeometry y="26" width="160" height="8" as="geometry" />
        </mxCell>
        <mxCell id="8Gco-aPwfKXWgK4UTAxF-72" value="discounts" style="text;html=1;align=center;verticalAlign=middle;whiteSpace=wrap;rounded=0;fillColor=#f5f5f5;fontColor=#333333;strokeColor=#666666;" vertex="1" parent="WIyWlLk6GJQsqaUBKTNV-1">
          <mxGeometry x="904.5" y="4233" width="90" height="20" as="geometry" />
        </mxCell>
        <mxCell id="8Gco-aPwfKXWgK4UTAxF-73" value="1" style="text;html=1;align=center;verticalAlign=middle;resizable=0;points=[];autosize=1;strokeColor=none;fillColor=none;" vertex="1" parent="WIyWlLk6GJQsqaUBKTNV-1">
          <mxGeometry x="746" y="3742" width="30" height="30" as="geometry" />
        </mxCell>
        <mxCell id="8Gco-aPwfKXWgK4UTAxF-74" value="1" style="text;html=1;align=center;verticalAlign=middle;resizable=0;points=[];autosize=1;strokeColor=none;fillColor=none;" vertex="1" parent="WIyWlLk6GJQsqaUBKTNV-1">
          <mxGeometry x="543" y="3782" width="30" height="30" as="geometry" />
        </mxCell>
        <mxCell id="8Gco-aPwfKXWgK4UTAxF-75" value="1" style="text;html=1;align=center;verticalAlign=middle;resizable=0;points=[];autosize=1;strokeColor=none;fillColor=none;" vertex="1" parent="WIyWlLk6GJQsqaUBKTNV-1">
          <mxGeometry x="783" y="3762" width="30" height="30" as="geometry" />
        </mxCell>
        <mxCell id="8Gco-aPwfKXWgK4UTAxF-77" value="0...n" style="text;html=1;align=center;verticalAlign=middle;resizable=0;points=[];autosize=1;strokeColor=none;fillColor=none;" vertex="1" parent="WIyWlLk6GJQsqaUBKTNV-1">
          <mxGeometry x="1288.5" y="4478" width="50" height="30" as="geometry" />
        </mxCell>
        <mxCell id="8Gco-aPwfKXWgK4UTAxF-79" value="1" style="text;html=1;align=center;verticalAlign=middle;resizable=0;points=[];autosize=1;strokeColor=none;fillColor=none;" vertex="1" parent="WIyWlLk6GJQsqaUBKTNV-1">
          <mxGeometry x="925" y="3988" width="30" height="30" as="geometry" />
        </mxCell>
        <mxCell id="8Gco-aPwfKXWgK4UTAxF-80" value="0...n" style="text;html=1;align=center;verticalAlign=middle;resizable=0;points=[];autosize=1;strokeColor=none;fillColor=none;" vertex="1" parent="WIyWlLk6GJQsqaUBKTNV-1">
          <mxGeometry x="1029.5" y="4003" width="50" height="30" as="geometry" />
        </mxCell>
        <mxCell id="8Gco-aPwfKXWgK4UTAxF-81" value="0...n" style="text;html=1;align=center;verticalAlign=middle;resizable=0;points=[];autosize=1;strokeColor=none;fillColor=none;" vertex="1" parent="WIyWlLk6GJQsqaUBKTNV-1">
          <mxGeometry x="143" y="3792" width="50" height="30" as="geometry" />
        </mxCell>
        <mxCell id="8Gco-aPwfKXWgK4UTAxF-82" value="0..n" style="text;html=1;align=center;verticalAlign=middle;resizable=0;points=[];autosize=1;strokeColor=none;fillColor=none;" vertex="1" parent="WIyWlLk6GJQsqaUBKTNV-1">
          <mxGeometry x="1299.5" y="4123" width="40" height="30" as="geometry" />
        </mxCell>
        <mxCell id="8Gco-aPwfKXWgK4UTAxF-83" value="0..n" style="text;html=1;align=center;verticalAlign=middle;resizable=0;points=[];autosize=1;strokeColor=none;fillColor=none;" vertex="1" parent="WIyWlLk6GJQsqaUBKTNV-1">
          <mxGeometry x="1209.5" y="4048" width="40" height="30" as="geometry" />
        </mxCell>
        <mxCell id="8Gco-aPwfKXWgK4UTAxF-84" value="1" style="text;html=1;align=center;verticalAlign=middle;resizable=0;points=[];autosize=1;strokeColor=none;fillColor=none;" vertex="1" parent="WIyWlLk6GJQsqaUBKTNV-1">
          <mxGeometry x="550" y="4098" width="30" height="30" as="geometry" />
        </mxCell>
        <mxCell id="8Gco-aPwfKXWgK4UTAxF-85" value="0...n" style="text;html=1;align=center;verticalAlign=middle;resizable=0;points=[];autosize=1;strokeColor=none;fillColor=none;" vertex="1" parent="WIyWlLk6GJQsqaUBKTNV-1">
          <mxGeometry x="813.5" y="4048" width="50" height="30" as="geometry" />
        </mxCell>
        <mxCell id="8Gco-aPwfKXWgK4UTAxF-86" value="1" style="text;html=1;align=center;verticalAlign=middle;resizable=0;points=[];autosize=1;strokeColor=none;fillColor=none;" vertex="1" parent="WIyWlLk6GJQsqaUBKTNV-1">
          <mxGeometry x="934.5" y="4048" width="30" height="30" as="geometry" />
        </mxCell>
        <mxCell id="8Gco-aPwfKXWgK4UTAxF-87" value="1" style="text;html=1;align=center;verticalAlign=middle;resizable=0;points=[];autosize=1;strokeColor=none;fillColor=none;" vertex="1" parent="WIyWlLk6GJQsqaUBKTNV-1">
          <mxGeometry x="574" y="3862" width="30" height="30" as="geometry" />
        </mxCell>
        <mxCell id="8Gco-aPwfKXWgK4UTAxF-90" value="&lt;b&gt;&lt;font style=&quot;font-size: 20px;&quot;&gt;ExternalManagment&lt;/font&gt;&lt;/b&gt;" style="text;html=1;strokeColor=none;fillColor=none;align=center;verticalAlign=middle;whiteSpace=wrap;rounded=0;" vertex="1" parent="WIyWlLk6GJQsqaUBKTNV-1">
          <mxGeometry x="1196.5" y="4380" width="162" height="30" as="geometry" />
        </mxCell>
      </root>
    </mxGraphModel>
  </diagram>
</mxfile>
